M48
INCH
T01C0.01
T02C0.0256
T03C0.0335
T04C0.0433
%
T01
X+010640Y+005650
X+009520Y+005680
X+009580Y+006320
X+010285Y+006790
X+010670Y+006800
X+010140Y+007910
X+009050Y+007540
X+008960Y+007960
X+008490Y+007130
X+007990Y+007520
X+007860Y+008410
X+007270Y+008950
X+007640Y+009610
X+007690Y+010070
X+007700Y+010590
X+008190Y+010880
X+009210Y+010990
X+009760Y+010720
X+010080Y+010720
X+010650Y+010770
X+010676Y+009706
X+010690Y+009370
X+011030Y+009670
X+012187Y+009188
X+012500Y+009188
X+012812Y+009188
X+013125Y+009188
X+013437Y+009188
X+013437Y+010188
X+013125Y+010188
X+012812Y+010188
X+012500Y+010188
X+012187Y+010188
X+011940Y+010540
X+011960Y+010890
X+009780Y+009390
X+008730Y+009470
X+008330Y+009460
X+008410Y+009790
X+006610Y+011090
X+005940Y+009830
X+005325Y+009785
X+004600Y+009830
X+004230Y+010150
X+003870Y+011020
X+004305Y+008890
X+004390Y+008180
X+004280Y+007880
X+004280Y+007480
X+003880Y+007960
X+002970Y+007190
X+002310Y+007210
X+001310Y+007190
X+000500Y+007170
X+000520Y+006180
X+001310Y+006200
X+001310Y+005180
X+000520Y+005170
X+000490Y+004170
X+001310Y+004180
X+001310Y+003190
X+000510Y+003180
X+000500Y+002200
X+001310Y+002150
X+000540Y+001170
X+001310Y+000390
X+002320Y+001320
X+003830Y+001380
X+003810Y+001900
X+005040Y+001860
X+005250Y+001610
X+005860Y+001610
X+006550Y+001890
X+006980Y+002300
X+006982Y+002550
X+007280Y+003188
X+006990Y+003360
X+006600Y+003480
X+006730Y+003780
X+006480Y+004220
X+005840Y+003640
X+005850Y+005210
X+005520Y+005350
X+006200Y+005310
X+006480Y+005550
X+006990Y+005830
X+007300Y+005770
X+007440Y+005560
X+007380Y+004810
X+008250Y+004985
X+008810Y+004300
X+008950Y+004010
X+009150Y+003430
X+009616Y+003774
X+009813Y+003925
X+010050Y+003915
X+009790Y+004510
X+010880Y+003960
X+011320Y+003940
X+010938Y+003438
X+011795Y+003205
X+012090Y+003170
X+012020Y+003800
X+012740Y+003780
X+013490Y+003810
X+012415Y+005093
X+012370Y+005365
X+012395Y+005615
X+012150Y+007410
X+012090Y+008050
X+012820Y+007410
X+013385Y+007405
X+013460Y+008040
X+013090Y+008060
X+008070Y+006190
X+007240Y+006985
X+006460Y+006830
X+006030Y+006580
X+005338Y+006847
X+005062Y+006688
X+004810Y+006450
X+004830Y+005590
X+003820Y+005720
X+002540Y+006200
X+002550Y+005200
X+002560Y+004180
X+002550Y+003190
X+003790Y+003700
X+003820Y+000440
X+005430Y+000530
X+005720Y+000530
X+006980Y+001370
X+008410Y+001760
X+008830Y+001140
X+009390Y+000990
X+009260Y+000410
X+009620Y+000400
X+010120Y+000670
X+010440Y+001210
X+010420Y+002150
X+009830Y+002630
X+009410Y+002210
X+008590Y+002740
X+007960Y+002770
X+007640Y+003510
X+007875Y+003725
X+008560Y+003520
X+011938Y+002375
X+012250Y+002062
X+012563Y+002062
X+012875Y+002062
X+013188Y+002062
X+013500Y+002062
X+013500Y+001063
X+013188Y+001063
X+012875Y+001063
X+012563Y+001063
X+012250Y+001063
X+011190Y+000380
X+006220Y+007490
X+006240Y+007835
X+006370Y+008460
X+005270Y+007200
X+002280Y+009400
X+001320Y+008240
X+000510Y+008220
X+000490Y+009230
T02
X+011869Y+006570G85X+011711Y+006570
X+011869Y+004661G85X+011711Y+004661
T03
X+012983Y+006688
X+012983Y+004542
T04
X+000812Y+010687
X+001812Y+010687
X+002812Y+010687
X+002812Y+009687
X+001812Y+009687
X+001812Y+008687
X+001812Y+007687
X+000812Y+007687
X+000812Y+008687
X+000812Y+009687
X+002812Y+008687
X+002812Y+007687
X+002812Y+006687
X+001812Y+006687
X+000812Y+006687
X+000812Y+005687
X+001812Y+005687
X+001812Y+004687
X+000812Y+004687
X+000812Y+003687
X+001812Y+003687
X+001812Y+002687
X+001812Y+001687
X+000812Y+001687
X+000812Y+002687
X+002812Y+002687
X+002812Y+003687
X+002812Y+004687
X+002812Y+005687
X+002812Y+001687
X+002812Y+000687
X+001812Y+000687
X+000812Y+000687
T00
M30
