G04 DipTrace Beta 2.3.5.2*
%INBankWank.G2L*%
%MOIN*%
%ADD13C,0.01*%
%ADD14C,0.012*%
%ADD15C,0.008*%
%ADD16C,0.025*%
%ADD29R,0.0669X0.0669*%
%ADD30C,0.0669*%
%ADD59C,0.018*%
%FSLAX44Y44*%
G04*
G70*
G90*
G75*
G01*
%LNInner1*%
%LPD*%
X4230Y10150D2*
D14*
X4240Y10140D1*
Y9600D1*
X6005Y7835D1*
X6240D1*
X11795Y3205D2*
D15*
X11375Y3625D1*
X10815D1*
X10190Y3000D1*
X7187D1*
X6990Y3197D1*
Y3360D1*
X10938Y3438D2*
D13*
X9260Y1760D1*
X8410D1*
X10640Y5650D2*
D14*
X9550D1*
X9520Y5680D1*
X1812Y8687D2*
X1853D1*
X2360Y8180D1*
X4390D1*
X12395Y5615D2*
D15*
Y5585D1*
X11435D1*
X10910Y5060D1*
Y4775D1*
X10050Y3915D1*
X9150Y3430D2*
D13*
X10065D1*
X11225Y4590D1*
Y4800D1*
X11518Y5093D1*
X12415D1*
X7300Y5770D2*
X5250Y3720D1*
Y1610D1*
X7440Y5560D2*
X7390D1*
X5450Y3620D1*
Y2020D1*
X5860Y1610D1*
X5520Y5350D2*
Y4270D1*
X5060Y3810D1*
Y2610D1*
X3830Y1380D1*
X9760Y10720D2*
Y10740D1*
X8440D1*
X7960Y10260D1*
Y9370D1*
X7240Y8650D1*
Y6985D1*
X10080Y10720D2*
X9880Y10520D1*
X8440D1*
X8140Y10220D1*
Y9290D1*
X7500Y8650D1*
Y8340D1*
X7990Y7850D1*
Y7520D1*
X12370Y5365D2*
D15*
X12355Y5350D1*
X11520D1*
X11055Y4885D1*
Y4645D1*
X10065Y3655D1*
X9813D1*
Y3925D1*
X8560Y3520D2*
D13*
Y5350D1*
X7010Y6900D1*
Y8980D1*
X7640Y9610D1*
X5325Y9785D2*
X5620Y10080D1*
X7700D1*
X7690Y10070D1*
X5270Y7200D2*
D14*
Y7700D1*
X4283Y8687D1*
X2812D1*
X6200Y5310D2*
X5290Y6220D1*
Y6460D1*
X5062Y6688D1*
X12090Y3170D2*
D15*
X11500Y3760D1*
X10635D1*
X10063Y3188D1*
X7280D1*
X9050Y7540D2*
D14*
X8730D1*
X7860Y8410D1*
D59*
X6990Y5830D3*
X9580Y6320D3*
X4230Y10150D3*
X6240Y7835D3*
X5940Y9830D3*
X6030Y6580D3*
X11795Y3205D3*
X6990Y3360D3*
X5040Y1860D3*
X6982Y2550D3*
X7640Y3510D3*
X7700Y10590D3*
X7875Y3725D3*
X10938Y3438D3*
X8410Y1760D3*
X8730Y9470D3*
X9600Y1150D3*
X4810Y6450D3*
X5338Y6847D3*
X6480Y4220D3*
Y5550D3*
D3*
X6980Y1370D3*
Y2300D3*
X8250Y4985D3*
X10140Y7910D3*
X4390Y8180D3*
X2970Y7190D3*
X3880Y7960D3*
X8410Y9790D3*
X12395Y5615D3*
X10050Y3915D3*
X9150Y3430D3*
X12415Y5093D3*
X10676Y9706D3*
X6610Y11090D3*
X7300Y5770D3*
X5250Y1610D3*
X7440Y5560D3*
X5860Y1610D3*
X5520Y5350D3*
X3830Y1380D3*
X9760Y10720D3*
X7240Y6985D3*
X10080Y10720D3*
X7990Y7520D3*
X12370Y5365D3*
X9813Y3925D3*
X9616Y3774D3*
X8830Y1140D3*
X8590Y2740D3*
X9790Y4510D3*
X6570Y3540D3*
X12750Y7950D3*
X8560Y3520D3*
X7640Y9610D3*
X5325Y9785D3*
X7690Y10070D3*
X4830Y5590D3*
X5270Y7200D3*
X6200Y5310D3*
X5062Y6688D3*
X12090Y3170D3*
X7280Y3188D3*
X9050Y7540D3*
X7860Y8410D3*
X10640Y5650D3*
X9520Y5680D3*
X5430Y530D3*
X5720D3*
X1320Y8240D3*
X1310Y7190D3*
Y6200D3*
Y5180D3*
Y4180D3*
Y3190D3*
Y2150D3*
Y390D3*
X12150Y7410D3*
X12820D3*
X13385Y7405D3*
X12020Y3800D3*
X12740Y3780D3*
X13490Y3810D3*
X3870Y11020D3*
X3820Y440D3*
X9260Y410D3*
X9510D3*
X9390Y990D3*
X11190Y380D3*
X5840Y3640D3*
X10690Y9370D3*
X11030Y9670D3*
X3820Y5720D3*
X8960Y7960D3*
X8490Y7130D3*
X6460Y6830D3*
X4600Y9830D3*
X11960Y10890D3*
X11940Y10540D3*
X13090Y8060D3*
X13460Y8040D3*
X9830Y2630D3*
X10420Y2150D3*
X9410Y2210D3*
X7380Y4810D3*
X6730Y3780D3*
X8190Y10880D3*
X8330Y9460D3*
X2310Y7210D3*
X4305Y8890D3*
X3790Y3700D3*
X13500Y2062D3*
X13188D3*
X12875D3*
X12563D3*
X12250D3*
X13500Y1063D3*
X13188D3*
X12875D3*
X12563D3*
X12250D3*
X13437Y10188D3*
X13125D3*
X12812D3*
X12500D3*
X12187D3*
X13437Y9188D3*
X13125D3*
X12812D3*
X12500D3*
X12187D3*
X11938Y2375D3*
X11320Y3940D3*
X10670Y6800D3*
X10285Y6790D3*
X8950Y4010D3*
X3810Y1900D3*
X2540Y6200D3*
X2550Y5200D3*
X2560Y4180D3*
X2550Y3190D3*
X2320Y1320D3*
X8070Y6190D3*
X510Y8220D3*
X500Y7170D3*
X520Y6180D3*
Y5170D3*
X490Y4170D3*
X510Y3180D3*
X500Y2200D3*
X540Y1170D3*
X490Y9230D3*
X2280Y9400D3*
X4280Y7880D3*
Y7480D3*
X6370Y8460D3*
X9780Y9390D3*
X9210Y10990D3*
X10650Y10770D3*
X6550Y1890D3*
X7960Y2770D3*
X5850Y5210D3*
X10440Y1210D3*
X6220Y7490D3*
X7270Y8950D3*
X8810Y4300D3*
X540Y10796D2*
D16*
X1250D1*
X2374D2*
X6511D1*
X6708D2*
X7453D1*
X7948D2*
X8098D1*
X10397D2*
X13441D1*
X540Y10548D2*
X1258D1*
X2366D2*
X7375D1*
X10354D2*
X13441D1*
X540Y10299D2*
X1402D1*
X2222D2*
X3941D1*
X4519D2*
X5449D1*
X10046D2*
X13441D1*
X1249Y10050D2*
X1379D1*
X2249D2*
X2379D1*
X3249D2*
X3918D1*
X4542D2*
X5152D1*
X8589D2*
X13441D1*
X3374Y9802D2*
X3941D1*
X4538D2*
X4996D1*
X6265D2*
X7379D1*
X8737D2*
X10363D1*
X10987D2*
X13441D1*
X3370Y9553D2*
X3945D1*
X4698D2*
X5105D1*
X5546D2*
X5793D1*
X6089D2*
X7187D1*
X9046D2*
X10390D1*
X10964D2*
X13441D1*
X1229Y9304D2*
X1398D1*
X2229D2*
X2398D1*
X3229D2*
X4125D1*
X4948D2*
X6937D1*
X9007D2*
X13441D1*
X540Y9055D2*
X1383D1*
X2241D2*
X2383D1*
X3241D2*
X4375D1*
X5194D2*
X6734D1*
X8304D2*
X13441D1*
X540Y8807D2*
X1254D1*
X5444D2*
X6722D1*
X8054D2*
X13441D1*
X540Y8558D2*
X1254D1*
X5694D2*
X6722D1*
X8147D2*
X13441D1*
X540Y8309D2*
X1390D1*
X5940D2*
X6722D1*
X8370D2*
X13441D1*
X540Y8061D2*
X1386D1*
X6468D2*
X6722D1*
X8620D2*
X9851D1*
X10429D2*
X12441D1*
X13058D2*
X13441D1*
X540Y7812D2*
X1254D1*
X3370D2*
X3590D1*
X4171D2*
X4746D1*
X5542D2*
X5620D1*
X6565D2*
X6722D1*
X7526D2*
X7633D1*
X9210D2*
X9828D1*
X10452D2*
X12457D1*
X13046D2*
X13441D1*
X540Y7563D2*
X1254D1*
X3370D2*
X4972D1*
X5569D2*
X5953D1*
X6397D2*
X6722D1*
X7526D2*
X7664D1*
X9378D2*
X13441D1*
X540Y7315D2*
X1386D1*
X2237D2*
X2386D1*
X3272D2*
X4965D1*
X5577D2*
X6722D1*
X7526D2*
X7742D1*
X8237D2*
X8551D1*
X9276D2*
X13441D1*
X540Y7066D2*
X1390D1*
X2233D2*
X2390D1*
X3272D2*
X4972D1*
X5573D2*
X6722D1*
X7558D2*
X13441D1*
X540Y6817D2*
X1254D1*
X3370D2*
X4765D1*
X5663D2*
X5816D1*
X6245D2*
X6734D1*
X7519D2*
X13441D1*
X540Y6569D2*
X1254D1*
X3370D2*
X4508D1*
X5565D2*
X5701D1*
X6358D2*
X6945D1*
X7737D2*
X9383D1*
X9776D2*
X13441D1*
X540Y6320D2*
X1383D1*
X2245D2*
X2383D1*
X3245D2*
X4511D1*
X5601D2*
X5851D1*
X6210D2*
X7195D1*
X7987D2*
X9254D1*
X9909D2*
X13441D1*
X540Y6071D2*
X1398D1*
X2229D2*
X2398D1*
X3229D2*
X5035D1*
X5851D2*
X6781D1*
X7198D2*
X7441D1*
X8237D2*
X9383D1*
X9776D2*
X13441D1*
X540Y5823D2*
X1258D1*
X3366D2*
X4609D1*
X5050D2*
X5277D1*
X6097D2*
X6324D1*
X8483D2*
X11324D1*
X12640D2*
X13441D1*
X540Y5574D2*
X1254D1*
X3374D2*
X4504D1*
X5159D2*
X5293D1*
X7769D2*
X7941D1*
X8733D2*
X11043D1*
X12722D2*
X13441D1*
X540Y5325D2*
X1379D1*
X2249D2*
X2379D1*
X3249D2*
X4660D1*
X5003D2*
X5195D1*
X7655D2*
X8187D1*
X8847D2*
X10793D1*
X12694D2*
X13441D1*
X540Y5076D2*
X1402D1*
X2222D2*
X2402D1*
X3222D2*
X5230D1*
X5808D2*
X5979D1*
X7304D2*
X7937D1*
X8847D2*
X10633D1*
X12741D2*
X13441D1*
X540Y4828D2*
X1258D1*
X3366D2*
X5230D1*
X5808D2*
X5965D1*
X7054D2*
X7965D1*
X8847D2*
X10582D1*
X11651D2*
X12246D1*
X12585D2*
X13441D1*
X540Y4579D2*
X1250D1*
X3374D2*
X5230D1*
X6808D2*
X8273D1*
X8847D2*
X9469D1*
X10108D2*
X10332D1*
X11511D2*
X13441D1*
X540Y4330D2*
X1371D1*
X2253D2*
X2371D1*
X3253D2*
X5183D1*
X6788D2*
X8273D1*
X8847D2*
X9519D1*
X11362D2*
X13441D1*
X540Y4082D2*
X1406D1*
X2218D2*
X2406D1*
X3218D2*
X4933D1*
X6776D2*
X8273D1*
X8847D2*
X9527D1*
X11112D2*
X13441D1*
X540Y3833D2*
X1261D1*
X3366D2*
X4773D1*
X6061D2*
X6469D1*
X6671D2*
X7566D1*
X8183D2*
X8274D1*
X8847D2*
X9293D1*
X11811D2*
X13441D1*
X540Y3584D2*
X1250D1*
X3374D2*
X4773D1*
X5811D2*
X6246D1*
X7218D2*
X7319D1*
X12058D2*
X13441D1*
X540Y3336D2*
X1367D1*
X2257D2*
X2367D1*
X3257D2*
X4773D1*
X5737D2*
X6320D1*
X12370D2*
X13441D1*
X540Y3087D2*
X1414D1*
X2214D2*
X2414D1*
X3214D2*
X4773D1*
X5737D2*
X6738D1*
X10983D2*
X11492D1*
X12405D2*
X13441D1*
X540Y2838D2*
X1261D1*
X3362D2*
X4773D1*
X5737D2*
X6863D1*
X10733D2*
X13441D1*
X540Y2590D2*
X1250D1*
X3378D2*
X4644D1*
X5737D2*
X6656D1*
X7308D2*
X8301D1*
X8878D2*
X9691D1*
X10487D2*
X13441D1*
X540Y2341D2*
X1363D1*
X2261D2*
X2363D1*
X3261D2*
X4394D1*
X5737D2*
X6656D1*
X7304D2*
X9445D1*
X10237D2*
X13441D1*
X540Y2092D2*
X1418D1*
X2206D2*
X2418D1*
X3206D2*
X4144D1*
X5776D2*
X6734D1*
X7226D2*
X9195D1*
X9987D2*
X13441D1*
X540Y1844D2*
X1261D1*
X3362D2*
X3898D1*
X6077D2*
X8094D1*
X9741D2*
X13441D1*
X540Y1595D2*
X1250D1*
X3378D2*
X3590D1*
X4440D2*
X4867D1*
X6186D2*
X6754D1*
X7206D2*
X8133D1*
X9491D2*
X13441D1*
X540Y1346D2*
X1359D1*
X2265D2*
X2358D1*
X3265D2*
X3504D1*
X4194D2*
X5078D1*
X5425D2*
X5687D1*
X6034D2*
X6652D1*
X7308D2*
X8582D1*
X9077D2*
X9344D1*
X9854D2*
X13441D1*
X540Y1097D2*
X1426D1*
X2202D2*
X2426D1*
X3202D2*
X3695D1*
X3964D2*
X6824D1*
X7136D2*
X8504D1*
X9155D2*
X9277D1*
X9925D2*
X13441D1*
X540Y849D2*
X1265D1*
X3362D2*
X8722D1*
X8936D2*
X13441D1*
X540Y600D2*
X1246D1*
X3378D2*
X13441D1*
X2346Y10564D2*
X2304Y10446D1*
X2237Y10341D1*
X2147Y10254D1*
X2037Y10188D1*
X2093Y10158D1*
X2192Y10082D1*
X2271Y9986D1*
X2312Y9906D1*
X2335Y9955D1*
X2408Y10056D1*
X2502Y10138D1*
X2612Y10197D1*
X2732Y10229D1*
X2857Y10233D1*
X2979Y10209D1*
X3093Y10158D1*
X3192Y10082D1*
X3271Y9986D1*
X3327Y9875D1*
X3356Y9753D1*
X3360Y9687D1*
X3346Y9564D1*
X3304Y9446D1*
X3237Y9341D1*
X3147Y9254D1*
X3037Y9188D1*
X3093Y9158D1*
X3192Y9082D1*
X3284Y8962D1*
X4283Y8960D1*
X4406Y8930D1*
X4476Y8881D1*
X5463Y7893D1*
X5529Y7784D1*
X5543Y7700D1*
Y7329D1*
X5573Y7200D1*
X5541Y7069D1*
X5602Y6995D1*
X5641Y6847D1*
X5615Y6726D1*
X5543Y6625D1*
X5520Y6611D1*
X5542Y6565D1*
X5563Y6460D1*
Y6331D1*
X6209Y5687D1*
X6225Y5714D1*
X6312Y5802D1*
X6427Y5848D1*
X6551Y5844D1*
X6664Y5791D1*
X6697Y5753D1*
X6691Y5878D1*
X6735Y5994D1*
X6822Y6082D1*
X6937Y6128D1*
X7061Y6124D1*
X7174Y6071D1*
X7191Y6051D1*
X7247Y6068D1*
X7371Y6064D1*
X7484Y6011D1*
X7565Y5917D1*
X7596Y5817D1*
X7624Y5801D1*
X7705Y5707D1*
X7743Y5560D1*
X7718Y5439D1*
X7646Y5337D1*
X7539Y5274D1*
X7466Y5264D1*
X6664Y4461D1*
X6745Y4367D1*
X6783Y4220D1*
X6758Y4099D1*
X6686Y3997D1*
X6579Y3934D1*
X6456Y3918D1*
X6337Y3953D1*
X6240Y4036D1*
X5712Y3510D1*
X5713Y2132D1*
X5937Y1905D1*
X6044Y1851D1*
X6125Y1757D1*
X6163Y1610D1*
X6138Y1489D1*
X6066Y1387D1*
X5959Y1324D1*
X5836Y1308D1*
X5717Y1343D1*
X5622Y1423D1*
X5568Y1530D1*
X5456Y1387D1*
X5349Y1324D1*
X5226Y1308D1*
X5107Y1343D1*
X5012Y1423D1*
X4957Y1534D1*
X4955Y1569D1*
X4897Y1593D1*
X4802Y1673D1*
X4747Y1784D1*
X4741Y1908D1*
X4748Y1926D1*
X4122Y1300D1*
X4108Y1259D1*
X4036Y1157D1*
X3929Y1094D1*
X3806Y1078D1*
X3687Y1113D1*
X3592Y1193D1*
X3537Y1304D1*
X3531Y1428D1*
X3575Y1544D1*
X3662Y1632D1*
X3745Y1665D1*
X4796Y2718D1*
X4797Y3810D1*
X4829Y3935D1*
X4874Y3996D1*
X5258Y4380D1*
X5257Y5204D1*
X5227Y5274D1*
X5221Y5398D1*
X5265Y5514D1*
X5352Y5602D1*
X5479Y5648D1*
X5097Y6027D1*
X5031Y6136D1*
X5017Y6232D1*
X4909Y6164D1*
X4786Y6148D1*
X4667Y6183D1*
X4572Y6263D1*
X4517Y6374D1*
X4511Y6498D1*
X4555Y6614D1*
X4642Y6702D1*
X4769Y6748D1*
X4808Y6851D1*
X4895Y6940D1*
X5010Y6986D1*
X5060Y6984D1*
X5032Y7013D1*
X4977Y7124D1*
X4971Y7248D1*
X4997Y7317D1*
Y7587D1*
X4610Y7974D1*
X4489Y7894D1*
X4366Y7878D1*
X4265Y7907D1*
X4158Y7839D1*
X4086Y7737D1*
X3979Y7674D1*
X3856Y7658D1*
X3737Y7693D1*
X3642Y7773D1*
X3587Y7884D1*
X3586Y7903D1*
X3316Y7907D1*
X3356Y7753D1*
X3360Y7687D1*
X3346Y7564D1*
X3304Y7446D1*
X3235Y7337D1*
X3273Y7190D1*
X3248Y7069D1*
X3227Y7040D1*
X3271Y6986D1*
X3327Y6875D1*
X3356Y6753D1*
X3360Y6687D1*
X3346Y6564D1*
X3304Y6446D1*
X3237Y6341D1*
X3147Y6254D1*
X3037Y6188D1*
X3093Y6158D1*
X3192Y6082D1*
X3271Y5986D1*
X3327Y5875D1*
X3356Y5753D1*
X3360Y5687D1*
X3346Y5564D1*
X3304Y5446D1*
X3237Y5341D1*
X3147Y5254D1*
X3037Y5188D1*
X3093Y5158D1*
X3192Y5082D1*
X3271Y4986D1*
X3327Y4875D1*
X3356Y4753D1*
X3360Y4687D1*
X3346Y4564D1*
X3304Y4446D1*
X3237Y4341D1*
X3147Y4254D1*
X3037Y4188D1*
X3093Y4158D1*
X3192Y4082D1*
X3271Y3986D1*
X3327Y3875D1*
X3356Y3753D1*
X3360Y3687D1*
X3346Y3564D1*
X3304Y3446D1*
X3237Y3341D1*
X3147Y3254D1*
X3037Y3188D1*
X3093Y3158D1*
X3192Y3082D1*
X3271Y2986D1*
X3327Y2875D1*
X3356Y2753D1*
X3360Y2687D1*
X3346Y2564D1*
X3304Y2446D1*
X3237Y2341D1*
X3147Y2254D1*
X3037Y2188D1*
X3093Y2158D1*
X3192Y2082D1*
X3271Y1986D1*
X3327Y1875D1*
X3356Y1753D1*
X3360Y1687D1*
X3346Y1564D1*
X3304Y1446D1*
X3237Y1341D1*
X3147Y1254D1*
X3037Y1188D1*
X3093Y1158D1*
X3192Y1082D1*
X3271Y986D1*
X3327Y875D1*
X3356Y753D1*
X3360Y687D1*
X3346Y564D1*
X3285Y417D1*
X12390Y415D1*
X13465D1*
Y11045D1*
X6906D1*
X6888Y10969D1*
X6816Y10867D1*
X6709Y10804D1*
X6586Y10788D1*
X6467Y10823D1*
X6372Y10903D1*
X6317Y11014D1*
X6315Y11049D1*
X5590Y11045D1*
X2227D1*
X2271Y10986D1*
X2327Y10875D1*
X2356Y10753D1*
X2360Y10687D1*
X2346Y10564D1*
X1591Y10190D2*
X1455Y10273D1*
X1370Y10364D1*
X1309Y10473D1*
X1273Y10592D1*
X1266Y10717D1*
X1287Y10840D1*
X1335Y10955D1*
X1401Y11047D1*
X515Y11045D1*
Y10150D1*
X612Y10197D1*
X732Y10229D1*
X857Y10233D1*
X979Y10209D1*
X1093Y10158D1*
X1192Y10082D1*
X1271Y9986D1*
X1312Y9906D1*
X1335Y9955D1*
X1408Y10056D1*
X1502Y10138D1*
X1594Y10188D1*
X1311Y9464D2*
X1237Y9341D1*
X1147Y9254D1*
X1041Y9190D1*
X922Y9151D1*
X798Y9140D1*
X674Y9158D1*
X558Y9203D1*
X516Y9231D1*
X515Y415D1*
X1339D1*
X1309Y473D1*
X1273Y592D1*
X1266Y717D1*
X1287Y840D1*
X1335Y955D1*
X1408Y1056D1*
X1502Y1138D1*
X1594Y1188D1*
X1558Y1203D1*
X1455Y1273D1*
X1370Y1364D1*
X1309Y1473D1*
X1273Y1592D1*
X1266Y1717D1*
X1287Y1840D1*
X1335Y1955D1*
X1408Y2056D1*
X1502Y2138D1*
X1594Y2188D1*
X1558Y2203D1*
X1455Y2273D1*
X1370Y2364D1*
X1309Y2473D1*
X1273Y2592D1*
X1266Y2717D1*
X1287Y2840D1*
X1335Y2955D1*
X1408Y3056D1*
X1502Y3138D1*
X1594Y3188D1*
X1558Y3203D1*
X1455Y3273D1*
X1370Y3364D1*
X1309Y3473D1*
X1273Y3592D1*
X1266Y3717D1*
X1287Y3840D1*
X1335Y3955D1*
X1408Y4056D1*
X1502Y4138D1*
X1594Y4188D1*
X1558Y4203D1*
X1455Y4273D1*
X1370Y4364D1*
X1309Y4473D1*
X1273Y4592D1*
X1266Y4717D1*
X1287Y4840D1*
X1335Y4955D1*
X1408Y5056D1*
X1502Y5138D1*
X1594Y5188D1*
X1558Y5203D1*
X1455Y5273D1*
X1370Y5364D1*
X1309Y5473D1*
X1273Y5592D1*
X1266Y5717D1*
X1287Y5840D1*
X1335Y5955D1*
X1408Y6056D1*
X1502Y6138D1*
X1594Y6188D1*
X1558Y6203D1*
X1455Y6273D1*
X1370Y6364D1*
X1309Y6473D1*
X1273Y6592D1*
X1266Y6717D1*
X1287Y6840D1*
X1335Y6955D1*
X1408Y7056D1*
X1502Y7138D1*
X1594Y7188D1*
X1558Y7203D1*
X1455Y7273D1*
X1370Y7364D1*
X1309Y7473D1*
X1273Y7592D1*
X1266Y7717D1*
X1287Y7840D1*
X1335Y7955D1*
X1408Y8056D1*
X1502Y8138D1*
X1594Y8188D1*
X1558Y8203D1*
X1455Y8273D1*
X1370Y8364D1*
X1309Y8473D1*
X1273Y8592D1*
X1266Y8717D1*
X1287Y8840D1*
X1335Y8955D1*
X1408Y9056D1*
X1502Y9138D1*
X1594Y9188D1*
X1558Y9203D1*
X1455Y9273D1*
X1370Y9364D1*
X1314Y9463D1*
X2311Y9464D2*
X2237Y9341D1*
X2147Y9254D1*
X2037Y9188D1*
X2093Y9158D1*
X2192Y9082D1*
X2271Y8986D1*
X2312Y8906D1*
X2335Y8955D1*
X2408Y9056D1*
X2502Y9138D1*
X2594Y9188D1*
X2558Y9203D1*
X2455Y9273D1*
X2370Y9364D1*
X2314Y9463D1*
X2311Y7464D2*
X2237Y7341D1*
X2147Y7254D1*
X2037Y7188D1*
X2093Y7158D1*
X2192Y7082D1*
X2271Y6986D1*
X2312Y6906D1*
X2335Y6955D1*
X2408Y7056D1*
X2502Y7138D1*
X2594Y7188D1*
X2558Y7203D1*
X2455Y7273D1*
X2370Y7364D1*
X2314Y7463D1*
X2311Y6464D2*
X2237Y6341D1*
X2147Y6254D1*
X2037Y6188D1*
X2093Y6158D1*
X2192Y6082D1*
X2271Y5986D1*
X2312Y5906D1*
X2335Y5955D1*
X2408Y6056D1*
X2502Y6138D1*
X2594Y6188D1*
X2558Y6203D1*
X2455Y6273D1*
X2370Y6364D1*
X2314Y6463D1*
X2311Y5464D2*
X2237Y5341D1*
X2147Y5254D1*
X2037Y5188D1*
X2093Y5158D1*
X2192Y5082D1*
X2271Y4986D1*
X2312Y4906D1*
X2335Y4955D1*
X2408Y5056D1*
X2502Y5138D1*
X2594Y5188D1*
X2558Y5203D1*
X2455Y5273D1*
X2370Y5364D1*
X2314Y5463D1*
X2311Y4464D2*
X2237Y4341D1*
X2147Y4254D1*
X2037Y4188D1*
X2093Y4158D1*
X2192Y4082D1*
X2271Y3986D1*
X2312Y3906D1*
X2335Y3955D1*
X2408Y4056D1*
X2502Y4138D1*
X2594Y4188D1*
X2558Y4203D1*
X2455Y4273D1*
X2370Y4364D1*
X2314Y4463D1*
X2311Y3464D2*
X2237Y3341D1*
X2147Y3254D1*
X2037Y3188D1*
X2093Y3158D1*
X2192Y3082D1*
X2271Y2986D1*
X2312Y2906D1*
X2335Y2955D1*
X2408Y3056D1*
X2502Y3138D1*
X2594Y3188D1*
X2558Y3203D1*
X2455Y3273D1*
X2370Y3364D1*
X2314Y3463D1*
X2311Y2464D2*
X2237Y2341D1*
X2147Y2254D1*
X2037Y2188D1*
X2093Y2158D1*
X2192Y2082D1*
X2271Y1986D1*
X2312Y1906D1*
X2335Y1955D1*
X2408Y2056D1*
X2502Y2138D1*
X2594Y2188D1*
X2558Y2203D1*
X2455Y2273D1*
X2370Y2364D1*
X2314Y2463D1*
X2311Y1464D2*
X2237Y1341D1*
X2147Y1254D1*
X2037Y1188D1*
X2093Y1158D1*
X2192Y1082D1*
X2271Y986D1*
X2312Y906D1*
X2335Y955D1*
X2408Y1056D1*
X2502Y1138D1*
X2594Y1188D1*
X2558Y1203D1*
X2455Y1273D1*
X2370Y1364D1*
X2314Y1463D1*
X9858Y6199D2*
X9786Y6097D1*
X9679Y6034D1*
X9556Y6018D1*
X9437Y6053D1*
X9342Y6133D1*
X9287Y6244D1*
X9281Y6368D1*
X9325Y6484D1*
X9412Y6572D1*
X9527Y6618D1*
X9651Y6614D1*
X9764Y6561D1*
X9845Y6467D1*
X9883Y6320D1*
X9858Y6199D1*
X4513Y10042D2*
Y9714D1*
X6115Y8111D1*
X6187Y8133D1*
X6311Y8129D1*
X6424Y8076D1*
X6505Y7982D1*
X6543Y7835D1*
X6518Y7714D1*
X6446Y7612D1*
X6339Y7549D1*
X6216Y7533D1*
X6115Y7562D1*
X6005D1*
X5881Y7593D1*
X5812Y7642D1*
X4047Y9407D1*
X3981Y9516D1*
X3967Y9600D1*
Y10002D1*
X3937Y10074D1*
X3931Y10198D1*
X3975Y10314D1*
X4062Y10402D1*
X4177Y10448D1*
X4301Y10444D1*
X4414Y10391D1*
X4495Y10297D1*
X4533Y10150D1*
X4513Y10055D1*
X6241Y9819D2*
X6218Y9709D1*
X6146Y9607D1*
X6039Y9544D1*
X5916Y9528D1*
X5797Y9563D1*
X5702Y9643D1*
X5652Y9743D1*
X5615Y9703D1*
X5603Y9664D1*
X5531Y9562D1*
X5424Y9499D1*
X5301Y9483D1*
X5182Y9518D1*
X5087Y9598D1*
X5032Y9709D1*
X5026Y9833D1*
X5070Y9949D1*
X5157Y10037D1*
X5240Y10070D1*
X5434Y10266D1*
X5545Y10332D1*
X5620Y10343D1*
X7522D1*
X7462Y10403D1*
X7407Y10514D1*
X7401Y10638D1*
X7445Y10754D1*
X7532Y10842D1*
X7647Y10888D1*
X7771Y10884D1*
X7884Y10831D1*
X7965Y10737D1*
X7989Y10660D1*
X8254Y10926D1*
X8365Y10992D1*
X8440Y11003D1*
X9655D1*
X9707Y11018D1*
X9831Y11014D1*
X9919Y10973D1*
X10027Y11018D1*
X10151Y11014D1*
X10264Y10961D1*
X10345Y10867D1*
X10383Y10720D1*
X10358Y10599D1*
X10286Y10497D1*
X10179Y10434D1*
X10160Y10431D1*
X10066Y10334D1*
X9955Y10268D1*
X9880Y10257D1*
X8548D1*
X8402Y10110D1*
X8403Y10091D1*
X8481Y10084D1*
X8594Y10031D1*
X8675Y9937D1*
X8713Y9790D1*
X8709Y9771D1*
X8801Y9764D1*
X8914Y9711D1*
X8995Y9617D1*
X9033Y9470D1*
X9008Y9349D1*
X8936Y9247D1*
X8829Y9184D1*
X8706Y9168D1*
X8587Y9203D1*
X8492Y9283D1*
X8437Y9394D1*
X8432Y9491D1*
X8403Y9470D1*
Y9290D1*
X8371Y9165D1*
X8326Y9104D1*
X7931Y8704D1*
X8044Y8651D1*
X8125Y8557D1*
X8137Y8517D1*
X8846Y7810D1*
X8921Y7813D1*
X8997Y7838D1*
X9121Y7834D1*
X9234Y7781D1*
X9315Y7687D1*
X9353Y7540D1*
X9328Y7419D1*
X9256Y7317D1*
X9149Y7254D1*
X9026Y7238D1*
X8925Y7267D1*
X8730D1*
X8606Y7298D1*
X8537Y7347D1*
X8280Y7604D1*
X8293Y7520D1*
X8268Y7399D1*
X8196Y7297D1*
X8089Y7234D1*
X7966Y7218D1*
X7847Y7253D1*
X7752Y7333D1*
X7697Y7444D1*
X7691Y7568D1*
X7728Y7666D1*
X7716Y7752D1*
X7503Y7965D1*
X7505Y7132D1*
X7543Y6985D1*
X7518Y6864D1*
X7475Y6803D1*
X8746Y5536D1*
X8812Y5425D1*
X8823Y5350D1*
X8825Y3667D1*
X8863Y3526D1*
X8895Y3594D1*
X8982Y3682D1*
X9097Y3728D1*
X9221Y3724D1*
X9288Y3693D1*
X9322Y3698D1*
X9317Y3822D1*
X9361Y3938D1*
X9448Y4027D1*
X9545Y4065D1*
X9645Y4177D1*
X9735Y4213D1*
X9647Y4243D1*
X9552Y4323D1*
X9497Y4434D1*
X9491Y4558D1*
X9535Y4674D1*
X9622Y4762D1*
X9737Y4808D1*
X9861Y4804D1*
X9974Y4751D1*
X10055Y4657D1*
X10093Y4510D1*
X10068Y4389D1*
X9996Y4287D1*
X9889Y4224D1*
X9870Y4221D1*
X9937Y4194D1*
X10048Y4271D1*
X10658Y4881D1*
X10657Y5060D1*
X10690Y5183D1*
X10731Y5239D1*
X11256Y5764D1*
X11366Y5828D1*
X11435Y5838D1*
X12189D1*
X12227Y5868D1*
X12343Y5914D1*
X12467Y5910D1*
X12579Y5856D1*
X12660Y5763D1*
X12698Y5615D1*
X12673Y5494D1*
X12653Y5465D1*
X12673Y5365D1*
X12655Y5278D1*
X12680Y5241D1*
X12718Y5093D1*
X12693Y4972D1*
X12621Y4871D1*
X12514Y4807D1*
X12391Y4791D1*
X12269Y4829D1*
X11630Y4830D1*
X11486Y4689D1*
X11488Y4590D1*
X11456Y4465D1*
X11411Y4404D1*
X11022Y4015D1*
X11500Y4013D1*
X11623Y3980D1*
X11679Y3939D1*
X12161Y3464D1*
X12274Y3411D1*
X12355Y3317D1*
X12393Y3170D1*
X12368Y3049D1*
X12296Y2947D1*
X12189Y2884D1*
X12066Y2868D1*
X11947Y2903D1*
X11914Y2930D1*
X11894Y2919D1*
X11771Y2903D1*
X11652Y2938D1*
X11557Y3018D1*
X11501Y3141D1*
X11271Y3371D1*
X11230Y3372D1*
X11215Y3316D1*
X11143Y3215D1*
X11037Y3151D1*
X11017Y3149D1*
X9446Y1574D1*
X9335Y1508D1*
X9260Y1497D1*
X8561D1*
X8509Y1474D1*
X8386Y1458D1*
X8267Y1493D1*
X8172Y1573D1*
X8117Y1684D1*
X8111Y1808D1*
X8155Y1924D1*
X8242Y2012D1*
X8357Y2058D1*
X8481Y2054D1*
X8548Y2023D1*
X9148D1*
X9878Y2750D1*
X8889Y2747D1*
X8868Y2619D1*
X8796Y2517D1*
X8689Y2454D1*
X8566Y2438D1*
X8447Y2473D1*
X8352Y2553D1*
X8297Y2664D1*
X8293Y2745D1*
X7210Y2747D1*
X7247Y2697D1*
X7285Y2550D1*
X7258Y2425D1*
X7283Y2300D1*
X7258Y2179D1*
X7186Y2077D1*
X7079Y2014D1*
X6956Y1998D1*
X6837Y2033D1*
X6742Y2113D1*
X6687Y2224D1*
X6681Y2348D1*
X6710Y2424D1*
X6689Y2474D1*
X6683Y2598D1*
X6728Y2714D1*
X6815Y2802D1*
X6930Y2848D1*
X6980Y2847D1*
X6811Y3019D1*
X6747Y3129D1*
X6740Y3162D1*
X6669Y3254D1*
X6546Y3238D1*
X6427Y3273D1*
X6332Y3353D1*
X6277Y3464D1*
X6271Y3588D1*
X6315Y3704D1*
X6402Y3792D1*
X6517Y3838D1*
X6641Y3834D1*
X6754Y3781D1*
X6835Y3687D1*
X6852Y3632D1*
X6937Y3658D1*
X7061Y3654D1*
X7174Y3601D1*
X7255Y3507D1*
X7261Y3489D1*
X7341Y3558D1*
X7385Y3674D1*
X7472Y3762D1*
X7584Y3807D1*
X7620Y3889D1*
X7707Y3977D1*
X7822Y4023D1*
X7946Y4019D1*
X8058Y3966D1*
X8140Y3872D1*
X8178Y3725D1*
X8153Y3603D1*
X8081Y3502D1*
X7977Y3441D1*
X8267Y3444D1*
X8261Y3568D1*
X8298Y3666D1*
X8297Y4688D1*
X8226Y4683D1*
X8107Y4718D1*
X8012Y4798D1*
X7957Y4909D1*
X7951Y5033D1*
X7995Y5149D1*
X8082Y5237D1*
X8197Y5283D1*
X8256Y5281D1*
X6824Y6714D1*
X6758Y6825D1*
X6747Y6900D1*
Y8980D1*
X6779Y9105D1*
X6824Y9166D1*
X7346Y9688D1*
X7385Y9774D1*
X7426Y9815D1*
X6243Y9817D1*
X6308Y6459D2*
X6236Y6357D1*
X6129Y6294D1*
X6006Y6278D1*
X5887Y6313D1*
X5792Y6393D1*
X5737Y6504D1*
X5731Y6628D1*
X5775Y6744D1*
X5862Y6832D1*
X5977Y6878D1*
X6101Y6874D1*
X6214Y6821D1*
X6295Y6727D1*
X6333Y6580D1*
X6308Y6459D1*
X9878Y1029D2*
X9806Y927D1*
X9699Y864D1*
X9576Y848D1*
X9457Y883D1*
X9362Y963D1*
X9307Y1074D1*
X9301Y1198D1*
X9345Y1314D1*
X9432Y1402D1*
X9547Y1448D1*
X9671Y1444D1*
X9784Y1391D1*
X9865Y1297D1*
X9903Y1150D1*
X9878Y1029D1*
X7258Y1249D2*
X7186Y1147D1*
X7079Y1084D1*
X6956Y1068D1*
X6837Y1103D1*
X6742Y1183D1*
X6687Y1294D1*
X6681Y1418D1*
X6725Y1534D1*
X6812Y1622D1*
X6927Y1668D1*
X7051Y1664D1*
X7164Y1611D1*
X7245Y1517D1*
X7283Y1370D1*
X7258Y1249D1*
X10418Y7789D2*
X10346Y7687D1*
X10239Y7624D1*
X10116Y7608D1*
X9997Y7643D1*
X9902Y7723D1*
X9847Y7834D1*
X9841Y7958D1*
X9885Y8074D1*
X9972Y8162D1*
X10087Y8208D1*
X10211Y8204D1*
X10324Y8151D1*
X10405Y8057D1*
X10443Y7910D1*
X10418Y7789D1*
X10953Y9584D2*
X10881Y9483D1*
X10775Y9419D1*
X10652Y9404D1*
X10533Y9439D1*
X10437Y9518D1*
X10382Y9630D1*
X10376Y9754D1*
X10421Y9870D1*
X10508Y9958D1*
X10623Y10004D1*
X10747Y10000D1*
X10859Y9947D1*
X10940Y9853D1*
X10979Y9706D1*
X10953Y9584D1*
X5785Y4627D2*
X6166Y5008D1*
X6057Y5043D1*
X5962Y5123D1*
X5922Y5203D1*
X5798Y5229D1*
X5830Y5294D1*
X5822Y5302D1*
X5783Y5198D1*
Y4627D1*
X9108Y1019D2*
X9036Y917D1*
X8929Y854D1*
X8806Y838D1*
X8687Y873D1*
X8592Y953D1*
X8537Y1064D1*
X8531Y1188D1*
X8575Y1304D1*
X8662Y1392D1*
X8777Y1438D1*
X8901Y1434D1*
X9014Y1381D1*
X9095Y1287D1*
X9133Y1140D1*
X9108Y1019D1*
X13028Y7829D2*
X12956Y7727D1*
X12849Y7664D1*
X12726Y7648D1*
X12607Y7683D1*
X12512Y7763D1*
X12457Y7874D1*
X12451Y7998D1*
X12495Y8114D1*
X12582Y8202D1*
X12697Y8248D1*
X12821Y8244D1*
X12934Y8191D1*
X13015Y8097D1*
X13053Y7950D1*
X13028Y7829D1*
X5108Y5469D2*
X5036Y5367D1*
X4929Y5304D1*
X4806Y5288D1*
X4687Y5323D1*
X4592Y5403D1*
X4537Y5514D1*
X4531Y5638D1*
X4575Y5754D1*
X4662Y5842D1*
X4777Y5888D1*
X4901Y5884D1*
X5014Y5831D1*
X5095Y5737D1*
X5133Y5590D1*
X5108Y5469D1*
D29*
X812Y10687D3*
D30*
X1812D3*
X812Y9687D3*
X1812D3*
X812Y8687D3*
X1812D3*
X812Y7687D3*
X1812D3*
X812Y6687D3*
X1812D3*
X812Y5687D3*
X1812D3*
X812Y4687D3*
X1812D3*
X812Y3687D3*
X1812D3*
X812Y2687D3*
X1812D3*
X812Y1687D3*
X1812D3*
X812Y687D3*
X1812D3*
X2812Y10687D3*
Y9687D3*
Y8687D3*
Y7687D3*
Y6687D3*
Y5687D3*
Y4687D3*
Y3687D3*
Y2687D3*
Y1687D3*
Y687D3*
G36*
X11503Y7151D2*
X12077D1*
Y6363D1*
X11503D1*
Y7151D1*
G37*
G36*
X12176Y6432D2*
Y7151D1*
X12451D1*
Y6944D1*
X13416D1*
Y6432D1*
X12176D1*
G37*
G36*
X12451Y4287D2*
Y4080D1*
X12176D1*
Y4798D1*
X13416D1*
Y4287D1*
X12451D1*
G37*
G36*
X12077Y4080D2*
X11503D1*
Y4867D1*
X12077D1*
Y4080D1*
G37*
M02*
