G04 DipTrace Beta 2.3.5.2*
%INBankWank.GBO*%
%MOIN*%
%ADD15C,0.008*%
%ADD19C,0.013*%
%ADD23C,0.009*%
%ADD24C,0.005*%
%ADD113C,0.0031*%
%ADD116C,0.0022*%
%ADD117C,0.0062*%
%ADD118C,0.0046*%
%FSLAX44Y44*%
G04*
G70*
G90*
G75*
G01*
%LNBottom BottomSilk*%
%LPD*%
G36*
X345Y9145D2*
X1220D1*
Y255D1*
X345D1*
Y9145D1*
G37*
G36*
Y11150D2*
X1390D1*
Y10205D1*
X345D1*
Y11150D1*
G37*
G36*
X2385Y11130D2*
X3235D1*
Y10150D1*
X2385D1*
Y11130D1*
G37*
X1435Y8085D2*
D15*
X2190D1*
Y290D1*
X1435D1*
Y8085D1*
X1295Y11110D2*
X2315D1*
Y10240D1*
X1295D1*
Y11110D1*
X2430Y10305D2*
X3190D1*
Y9280D1*
X2430D1*
Y10305D1*
X3980Y2755D2*
D23*
X4685D1*
Y2155D1*
X3980D1*
Y2755D1*
X3960Y1955D2*
X4675D1*
Y1345D1*
X3960D1*
Y1955D1*
X3530Y2655D2*
D24*
X3900D1*
X9925Y9410D2*
D23*
X10510D1*
Y8715D1*
X9925D1*
Y9410D1*
X9915Y10235D2*
X10500D1*
Y9540D1*
X9915D1*
Y10235D1*
X10050Y6065D2*
X10265Y6280D1*
X11035Y6275D2*
X11250D1*
Y6270D2*
Y6085D1*
X11045Y5085D2*
X11240D1*
X11250D2*
Y5285D1*
X10070D2*
Y5090D1*
X10075D2*
X10265D1*
D19*
X10440Y6550D3*
X5255Y9530D2*
D23*
X7250D1*
Y8265D1*
X5255D1*
Y9530D1*
X4610Y7860D2*
X6005D1*
Y6490D1*
X4610D1*
Y7860D1*
X3435Y10250D2*
X3425Y4705D1*
X9760Y10250D2*
X9750Y4705D1*
X4699Y1213D2*
D116*
Y1112D1*
X4766Y1213D1*
Y1112D1*
X4632Y1179D2*
X4641Y1175D1*
X4651Y1165D1*
X4656Y1151D1*
Y1141D1*
X4651Y1127D1*
X4641Y1117D1*
X4632Y1112D1*
X4618D1*
X4608Y1117D1*
X4598Y1127D1*
X4594Y1141D1*
Y1151D1*
X4598Y1165D1*
X4608Y1175D1*
X4618Y1179D1*
X4632D1*
X4550D2*
Y1112D1*
Y1151D2*
X4545Y1165D1*
X4535Y1175D1*
X4526Y1179D1*
X4511D1*
X4468D2*
Y1112D1*
Y1160D2*
X4453Y1175D1*
X4444Y1179D1*
X4429D1*
X4420Y1175D1*
X4415Y1160D1*
Y1112D1*
Y1160D2*
X4401Y1175D1*
X4391Y1179D1*
X4377D1*
X4367Y1175D1*
X4362Y1160D1*
Y1112D1*
X4261Y1179D2*
Y1112D1*
Y1165D2*
X4271Y1175D1*
X4280Y1179D1*
X4295D1*
X4304Y1175D1*
X4314Y1165D1*
X4319Y1151D1*
Y1141D1*
X4314Y1127D1*
X4304Y1117D1*
X4295Y1112D1*
X4280D1*
X4271Y1117D1*
X4261Y1127D1*
X4217Y1213D2*
Y1112D1*
X4064Y1165D2*
X4021D1*
X4006Y1170D1*
X4001Y1175D1*
X3997Y1184D1*
Y1194D1*
X4001Y1203D1*
X4006Y1208D1*
X4021Y1213D1*
X4064D1*
Y1112D1*
X4030Y1165D2*
X3997Y1112D1*
X3953Y1213D2*
X3886Y1112D1*
Y1213D2*
X3953Y1112D1*
X3863Y2489D2*
D113*
X3777D1*
X3748Y2498D1*
X3738Y2508D1*
X3729Y2527D1*
Y2546D1*
X3738Y2565D1*
X3748Y2575D1*
X3777Y2584D1*
X3863D1*
Y2383D1*
X3796Y2489D2*
X3729Y2383D1*
X3667Y2584D2*
X3533Y2383D1*
Y2584D2*
X3667Y2383D1*
X11123Y10383D2*
D116*
Y10282D1*
X11089D1*
X11075Y10287D1*
X11065Y10297D1*
X11060Y10306D1*
X11056Y10321D1*
Y10345D1*
X11060Y10359D1*
X11065Y10368D1*
X11075Y10378D1*
X11089Y10383D1*
X11123D1*
X11012D2*
X11007Y10378D1*
X11002Y10383D1*
X11007Y10388D1*
X11012Y10383D1*
X11007Y10349D2*
Y10282D1*
X10901Y10345D2*
Y10268D1*
X10906Y10254D1*
X10911Y10249D1*
X10920Y10244D1*
X10935D1*
X10944Y10249D1*
X10901Y10330D2*
X10911Y10340D1*
X10920Y10345D1*
X10935D1*
X10944Y10340D1*
X10954Y10330D1*
X10959Y10316D1*
Y10306D1*
X10954Y10292D1*
X10944Y10282D1*
X10935Y10278D1*
X10920D1*
X10911Y10282D1*
X10901Y10292D1*
X10857Y10383D2*
X10853Y10378D1*
X10848Y10383D1*
X10853Y10388D1*
X10857Y10383D1*
X10853Y10349D2*
Y10282D1*
X10790Y10383D2*
Y10302D1*
X10785Y10287D1*
X10775Y10282D1*
X10766D1*
X10804Y10349D2*
X10771D1*
X10665D2*
Y10282D1*
Y10335D2*
X10674Y10345D1*
X10684Y10349D1*
X10698D1*
X10708Y10345D1*
X10717Y10335D1*
X10722Y10321D1*
Y10311D1*
X10717Y10297D1*
X10708Y10287D1*
X10698Y10282D1*
X10684D1*
X10674Y10287D1*
X10665Y10297D1*
X10621Y10383D2*
Y10282D1*
X11183Y10106D2*
D113*
X11097D1*
X11068Y10116D1*
X11058Y10126D1*
X11049Y10145D1*
Y10164D1*
X11058Y10183D1*
X11068Y10193D1*
X11097Y10202D1*
X11183D1*
Y10001D1*
X11116Y10106D2*
X11049Y10001D1*
X10853Y10173D2*
X10872Y10193D1*
X10901Y10202D1*
X10939D1*
X10968Y10193D1*
X10987Y10173D1*
Y10154D1*
X10977Y10135D1*
X10968Y10126D1*
X10949Y10116D1*
X10891Y10097D1*
X10872Y10087D1*
X10862Y10078D1*
X10853Y10059D1*
Y10030D1*
X10872Y10011D1*
X10901Y10001D1*
X10939D1*
X10968Y10011D1*
X10987Y10030D1*
X10657Y10173D2*
X10676Y10193D1*
X10705Y10202D1*
X10743D1*
X10772Y10193D1*
X10791Y10173D1*
Y10154D1*
X10781Y10135D1*
X10772Y10126D1*
X10753Y10116D1*
X10695Y10097D1*
X10676Y10087D1*
X10667Y10078D1*
X10657Y10059D1*
Y10030D1*
X10676Y10011D1*
X10705Y10001D1*
X10743D1*
X10772Y10011D1*
X10791Y10030D1*
X10595Y10202D2*
Y10001D1*
X10394Y8517D2*
D116*
X10433Y8618D1*
X10471Y8517D1*
X10456Y8551D2*
X10409D1*
X10351Y8584D2*
Y8517D1*
Y8565D2*
X10336Y8580D1*
X10327Y8584D1*
X10312D1*
X10303Y8580D1*
X10298Y8565D1*
Y8517D1*
X10197Y8584D2*
Y8517D1*
Y8570D2*
X10206Y8580D1*
X10216Y8584D1*
X10230D1*
X10240Y8580D1*
X10249Y8570D1*
X10254Y8556D1*
Y8546D1*
X10249Y8532D1*
X10240Y8522D1*
X10230Y8517D1*
X10216D1*
X10206Y8522D1*
X10197Y8532D1*
X10153Y8618D2*
Y8517D1*
X10085Y8584D2*
X10095Y8580D1*
X10105Y8570D1*
X10109Y8556D1*
Y8546D1*
X10105Y8532D1*
X10095Y8522D1*
X10085Y8517D1*
X10071D1*
X10061Y8522D1*
X10052Y8532D1*
X10047Y8546D1*
Y8556D1*
X10052Y8570D1*
X10061Y8580D1*
X10071Y8584D1*
X10085D1*
X9946Y8580D2*
Y8503D1*
X9951Y8489D1*
X9955Y8484D1*
X9965Y8479D1*
X9979D1*
X9989Y8484D1*
X9946Y8565D2*
X9955Y8575D1*
X9965Y8580D1*
X9979D1*
X9989Y8575D1*
X9999Y8565D1*
X10003Y8551D1*
Y8541D1*
X9999Y8527D1*
X9989Y8517D1*
X9979Y8513D1*
X9965D1*
X9955Y8517D1*
X9946Y8527D1*
X10508Y8341D2*
D113*
X10422D1*
X10393Y8351D1*
X10383Y8361D1*
X10374Y8380D1*
Y8399D1*
X10383Y8418D1*
X10393Y8428D1*
X10422Y8437D1*
X10508D1*
Y8236D1*
X10441Y8341D2*
X10374Y8236D1*
X10178Y8408D2*
X10197Y8428D1*
X10226Y8437D1*
X10264D1*
X10293Y8428D1*
X10312Y8408D1*
Y8389D1*
X10302Y8370D1*
X10293Y8361D1*
X10274Y8351D1*
X10216Y8332D1*
X10197Y8322D1*
X10187Y8313D1*
X10178Y8294D1*
Y8265D1*
X10197Y8246D1*
X10226Y8236D1*
X10264D1*
X10293Y8246D1*
X10312Y8265D1*
X9982Y8408D2*
X10001Y8428D1*
X10030Y8437D1*
X10068D1*
X10097Y8428D1*
X10116Y8408D1*
Y8389D1*
X10106Y8370D1*
X10097Y8361D1*
X10078Y8351D1*
X10020Y8332D1*
X10001Y8322D1*
X9992Y8313D1*
X9982Y8294D1*
Y8265D1*
X10001Y8246D1*
X10030Y8236D1*
X10068D1*
X10097Y8246D1*
X10116Y8265D1*
X9920Y8437D2*
Y8236D1*
X6390Y1032D2*
D117*
Y630D1*
X6218D1*
X6160Y649D1*
X6141Y668D1*
X6122Y706D1*
Y764D1*
X6141Y802D1*
X6160Y821D1*
X6218Y840D1*
X6160Y860D1*
X6141Y879D1*
X6122Y917D1*
Y955D1*
X6141Y993D1*
X6160Y1013D1*
X6218Y1032D1*
X6390D1*
Y840D2*
X6218D1*
X5999Y898D2*
Y630D1*
Y783D2*
X5979Y840D1*
X5941Y879D1*
X5903Y898D1*
X5845D1*
X5626D2*
X5664Y879D1*
X5703Y840D1*
X5722Y783D1*
Y745D1*
X5703Y687D1*
X5664Y649D1*
X5626Y630D1*
X5569D1*
X5530Y649D1*
X5492Y687D1*
X5473Y745D1*
Y783D1*
X5492Y840D1*
X5530Y879D1*
X5569Y898D1*
X5626D1*
X5292Y1032D2*
Y706D1*
X5273Y649D1*
X5234Y630D1*
X5196D1*
X5349Y898D2*
X5215D1*
X5073D2*
Y630D1*
Y783D2*
X5053Y840D1*
X5015Y879D1*
X4977Y898D1*
X4920D1*
X4700D2*
X4739Y879D1*
X4777Y840D1*
X4796Y783D1*
Y745D1*
X4777Y687D1*
X4739Y649D1*
X4700Y630D1*
X4643D1*
X4605Y649D1*
X4567Y687D1*
X4547Y745D1*
Y783D1*
X4567Y840D1*
X4605Y879D1*
X4643Y898D1*
X4700D1*
X4424D2*
Y630D1*
Y821D2*
X4366Y879D1*
X4328Y898D1*
X4271D1*
X4232Y879D1*
X4213Y821D1*
Y630D1*
X4090Y1032D2*
X4071Y1013D1*
X4051Y1032D1*
X4071Y1051D1*
X4090Y1032D1*
X4071Y898D2*
Y630D1*
X3698Y840D2*
X3736Y879D1*
X3775Y898D1*
X3832D1*
X3870Y879D1*
X3908Y840D1*
X3928Y783D1*
Y745D1*
X3908Y687D1*
X3870Y649D1*
X3832Y630D1*
X3775D1*
X3736Y649D1*
X3698Y687D1*
X3364Y840D2*
X3383Y879D1*
X3440Y898D1*
X3498D1*
X3555Y879D1*
X3574Y840D1*
X3555Y802D1*
X3517Y783D1*
X3421Y764D1*
X3383Y745D1*
X3364Y706D1*
Y687D1*
X3383Y649D1*
X3440Y630D1*
X3498D1*
X3555Y649D1*
X3574Y687D1*
X9577Y838D2*
D118*
Y537D1*
X9448D1*
X9405Y551D1*
X9390Y566D1*
X9376Y594D1*
Y637D1*
X9390Y666D1*
X9405Y680D1*
X9448Y695D1*
X9405Y709D1*
X9390Y724D1*
X9376Y752D1*
Y781D1*
X9390Y809D1*
X9405Y824D1*
X9448Y838D1*
X9577D1*
Y695D2*
X9448D1*
X9283Y738D2*
Y537D1*
Y652D2*
X9269Y695D1*
X9240Y724D1*
X9211Y738D1*
X9168D1*
X9004D2*
X9033Y724D1*
X9061Y695D1*
X9076Y652D1*
Y623D1*
X9061Y580D1*
X9033Y551D1*
X9004Y537D1*
X8961D1*
X8932Y551D1*
X8904Y580D1*
X8889Y623D1*
Y652D1*
X8904Y695D1*
X8932Y724D1*
X8961Y738D1*
X9004D1*
X8796D2*
X8710Y537D1*
X8624Y738D1*
X8532Y652D2*
X8360D1*
Y680D1*
X8374Y709D1*
X8388Y724D1*
X8417Y738D1*
X8460D1*
X8489Y724D1*
X8517Y695D1*
X8532Y652D1*
Y623D1*
X8517Y580D1*
X8489Y551D1*
X8460Y537D1*
X8417D1*
X8388Y551D1*
X8360Y580D1*
X8267Y738D2*
Y537D1*
Y652D2*
X8252Y695D1*
X8224Y724D1*
X8195Y738D1*
X8152D1*
X7901Y695D2*
X7916Y724D1*
X7959Y738D1*
X8002D1*
X8045Y724D1*
X8059Y695D1*
X8045Y666D1*
X8016Y652D1*
X7944Y637D1*
X7916Y623D1*
X7901Y594D1*
Y580D1*
X7916Y551D1*
X7959Y537D1*
X8002D1*
X8045Y551D1*
X8059Y580D1*
X7809Y838D2*
X7794Y824D1*
X7780Y838D1*
X7794Y853D1*
X7809Y838D1*
X7794Y738D2*
Y537D1*
X7644Y838D2*
Y594D1*
X7630Y551D1*
X7601Y537D1*
X7572D1*
X7687Y738D2*
X7587D1*
X7465D2*
X7379Y537D1*
X7408Y479D1*
X7437Y451D1*
X7465Y436D1*
X7480D1*
X7293Y738D2*
X7379Y537D1*
X7201Y695D2*
X7072D1*
X7028Y709D1*
X7014Y724D1*
X7000Y752D1*
Y781D1*
X7014Y809D1*
X7028Y824D1*
X7072Y838D1*
X7201D1*
Y537D1*
X7100Y695D2*
X7000Y537D1*
X6907Y838D2*
X6706Y537D1*
Y838D2*
X6907Y537D1*
M02*
