G04 DipTrace Beta 2.3.5.2*
%INBankWank.GBL*%
%MOIN*%
%ADD13C,0.01*%
%ADD14C,0.012*%
%ADD15C,0.008*%
%ADD16C,0.025*%
%ADD17C,0.0118*%
%ADD18C,0.029*%
%ADD19C,0.013*%
%ADD20C,0.006*%
%ADD21C,0.0197*%
%ADD28R,0.05X0.025*%
%ADD29R,0.0669X0.0669*%
%ADD30C,0.0669*%
%ADD32R,0.0433X0.0394*%
%ADD33R,0.0315X0.0197*%
%ADD37R,0.025X0.05*%
%ADD41R,0.16X0.06*%
%ADD43O,0.0118X0.0335*%
%ADD44O,0.0335X0.0118*%
%ADD45R,0.063X0.063*%
%ADD47R,0.0433X0.0236*%
%ADD49R,0.071X0.041*%
%ADD50R,0.049X0.024*%
%ADD59C,0.018*%
%FSLAX44Y44*%
G04*
G70*
G90*
G75*
G01*
%LNBottom*%
%LPD*%
X3838Y4320D2*
D14*
X3800D1*
Y4040D1*
X5290Y2550D1*
X5550D1*
X3838Y4320D2*
Y4598D1*
X4500Y5260D1*
X5020D1*
X5590Y5830D1*
X6990D1*
X9580Y6320D2*
D13*
X9920D1*
X10130Y6530D1*
X10780D1*
X10860Y6450D1*
Y6256D1*
X10854Y6250D1*
X4494Y1650D2*
Y2444D1*
X4510Y2460D1*
X4494Y1650D2*
X4830D1*
X5040Y1860D1*
X7700Y10590D2*
Y10694D1*
X7775Y10619D1*
X6988D2*
Y6352D1*
X7910Y5430D1*
Y5050D1*
X8170Y4790D1*
Y3851D1*
Y2295D1*
X8045D1*
X7875Y3725D2*
X8044D1*
X8170Y3851D1*
X9350Y10619D2*
X8563D1*
X10657Y5679D2*
X10640D1*
X10086D1*
X10880Y2390D2*
X11620D1*
X812Y8687D2*
D14*
Y8842D1*
X1320Y9350D1*
Y10180D1*
X812Y10687D1*
X2812D2*
Y10432D1*
X2560Y10180D1*
X1320D1*
X2812Y10687D2*
X3770D1*
X3838Y10619D1*
X10880Y8672D2*
X11620D1*
X12800Y8700D2*
X11648D1*
X11620Y8672D1*
X12800Y10700D2*
X10890D1*
X10520Y10330D1*
X9639D1*
X9350Y10619D1*
X11790Y6570D2*
X12865D1*
X12983Y6688D1*
Y4542D2*
X11908D1*
X11790Y4661D1*
X8563Y4320D2*
D13*
Y4553D1*
X9689Y5679D1*
X10086D1*
X10640Y5650D2*
Y5679D1*
X812Y1687D2*
D14*
Y1578D1*
X1240Y1150D1*
X4190D1*
X4850Y490D1*
X5390D1*
X5430Y530D1*
X10690Y9370D2*
Y8862D1*
X10880Y8672D1*
X11030Y9670D2*
D15*
X10900D1*
X10710Y9480D1*
Y9390D1*
X10690Y9370D1*
X11620Y2390D2*
X11938D1*
Y2410D1*
X12610D1*
X12800Y2600D1*
X11228Y5679D2*
X10657D1*
X11228D2*
X11499D1*
X11670Y5850D1*
Y6450D1*
X11790Y6570D1*
X11938Y2375D2*
Y2390D1*
X5550Y3298D2*
D13*
X5608Y3240D1*
X5810D1*
X6500Y2550D1*
X6613D1*
Y2325D1*
X6988Y1950D1*
X8800D1*
X8870D1*
X10880Y3960D1*
D14*
X10854Y3986D1*
Y5108D1*
X8800Y1950D2*
D13*
X9600Y1150D1*
X4626Y10619D2*
D14*
X4810Y10435D1*
Y6450D1*
X5413Y10619D2*
D13*
Y10563D1*
X5100Y10250D1*
Y8550D1*
X5330Y8320D1*
Y7520D1*
X5460Y7390D1*
Y6970D1*
X5338Y6847D1*
X6613Y2924D2*
D14*
X6476D1*
X6200Y3200D1*
Y4320D1*
X6613Y2924D2*
X6763D1*
X6750Y2938D1*
X6902D1*
X7375Y2465D1*
Y2295D1*
X6200Y4320D2*
X6380D1*
X6480Y4220D1*
X6980Y2300D2*
X7380D1*
X7375Y2295D1*
X11250Y9313D2*
D18*
X11637Y9700D1*
X12800D1*
X4140Y1650D2*
D14*
X3730D1*
X3240Y2140D1*
X2610D1*
X2320Y2430D1*
Y6930D1*
X2580Y7190D1*
X2970D1*
X4156Y2460D2*
D19*
Y3024D1*
X3400Y3780D1*
Y7480D1*
X3880Y7960D1*
X10213Y8883D2*
D13*
X9727D1*
X8820Y9790D1*
X8410D1*
X10200Y9706D2*
D20*
Y9250D1*
X10213Y9237D1*
X10200Y9706D2*
D13*
X10676D1*
X5413Y4320D2*
X5570Y4477D1*
Y4632D1*
X5758Y4820D1*
X6680D1*
X6988Y4512D1*
Y4320D1*
X4626D2*
X4750Y4196D1*
Y4830D1*
X4920Y5000D1*
X7650D1*
X7770Y4880D1*
Y4320D1*
X7775D1*
X11228Y5482D2*
D17*
Y5412D1*
X11250Y5390D1*
D18*
Y4230D1*
D21*
Y4190D1*
Y1750D2*
D18*
X11400Y1600D1*
X12800D1*
X11250Y3639D2*
Y3030D1*
X11230Y7471D2*
X11220Y7535D1*
Y8033D1*
X11250D1*
X11230Y6920D2*
X11228Y5950D1*
D17*
Y5876D1*
X9350Y4320D2*
D16*
X9450Y4220D1*
D18*
X10180D1*
D21*
Y4160D1*
X10080D1*
X6613Y3298D2*
D13*
Y3497D1*
X6570Y3540D1*
X7690Y10070D2*
X10210D1*
X10200Y10060D1*
X6200Y10619D2*
X6399D1*
X5670Y9890D1*
Y6870D1*
X4830Y6030D1*
Y5590D1*
D59*
X6990Y5830D3*
X9580Y6320D3*
X4230Y10150D3*
X6240Y7835D3*
X5940Y9830D3*
X6030Y6580D3*
X11795Y3205D3*
X6990Y3360D3*
X5040Y1860D3*
X6982Y2550D3*
X7640Y3510D3*
X7700Y10590D3*
X7875Y3725D3*
X10938Y3438D3*
X8410Y1760D3*
X8730Y9470D3*
X9600Y1150D3*
X4810Y6450D3*
X5338Y6847D3*
X6480Y4220D3*
Y5550D3*
D3*
X6980Y1370D3*
Y2300D3*
X8250Y4985D3*
X10140Y7910D3*
X4390Y8180D3*
X2970Y7190D3*
X3880Y7960D3*
X8410Y9790D3*
X12395Y5615D3*
X10050Y3915D3*
X9150Y3430D3*
X12415Y5093D3*
X10676Y9706D3*
X6610Y11090D3*
X7300Y5770D3*
X5250Y1610D3*
X7440Y5560D3*
X5860Y1610D3*
X5520Y5350D3*
X3830Y1380D3*
X9760Y10720D3*
X7240Y6985D3*
X10080Y10720D3*
X7990Y7520D3*
X12370Y5365D3*
X9813Y3925D3*
X9616Y3774D3*
X8830Y1140D3*
X8590Y2740D3*
X9790Y4510D3*
X6570Y3540D3*
X12750Y7950D3*
X8560Y3520D3*
X7640Y9610D3*
X5325Y9785D3*
X7690Y10070D3*
X4830Y5590D3*
X5270Y7200D3*
X6200Y5310D3*
X5062Y6688D3*
X12090Y3170D3*
X7280Y3188D3*
X9050Y7540D3*
X7860Y8410D3*
X10640Y5650D3*
X9520Y5680D3*
X5430Y530D3*
X5720D3*
X1320Y8240D3*
X1310Y7190D3*
Y6200D3*
Y5180D3*
Y4180D3*
Y3190D3*
Y2150D3*
Y390D3*
X12150Y7410D3*
X12820D3*
X13385Y7405D3*
X12020Y3800D3*
X12740Y3780D3*
X13490Y3810D3*
X3870Y11020D3*
X3820Y440D3*
X9260Y410D3*
X9510D3*
X9390Y990D3*
X11190Y380D3*
X5840Y3640D3*
X10690Y9370D3*
X11030Y9670D3*
X3820Y5720D3*
X8960Y7960D3*
X8490Y7130D3*
X6460Y6830D3*
X4600Y9830D3*
X11960Y10890D3*
X11940Y10540D3*
X13090Y8060D3*
X13460Y8040D3*
X9830Y2630D3*
X10420Y2150D3*
X9410Y2210D3*
X7380Y4810D3*
X6730Y3780D3*
X8190Y10880D3*
X8330Y9460D3*
X2310Y7210D3*
X4305Y8890D3*
X3790Y3700D3*
X13500Y2062D3*
X13188D3*
X12875D3*
X12563D3*
X12250D3*
X13500Y1063D3*
X13188D3*
X12875D3*
X12563D3*
X12250D3*
X13437Y10188D3*
X13125D3*
X12812D3*
X12500D3*
X12187D3*
X13437Y9188D3*
X13125D3*
X12812D3*
X12500D3*
X12187D3*
X11938Y2375D3*
X11320Y3940D3*
X10670Y6800D3*
X10285Y6790D3*
X8950Y4010D3*
X3810Y1900D3*
X2540Y6200D3*
X2550Y5200D3*
X2560Y4180D3*
X2550Y3190D3*
X2320Y1320D3*
X8070Y6190D3*
X510Y8220D3*
X500Y7170D3*
X520Y6180D3*
Y5170D3*
X490Y4170D3*
X510Y3180D3*
X500Y2200D3*
X540Y1170D3*
X490Y9230D3*
X2280Y9400D3*
X4280Y7880D3*
Y7480D3*
X6370Y8460D3*
X9780Y9390D3*
X9210Y10990D3*
X10650Y10770D3*
X6550Y1890D3*
X7960Y2770D3*
X5850Y5210D3*
X10440Y1210D3*
X6220Y7490D3*
X7270Y8950D3*
X8810Y4300D3*
X1273Y10991D2*
D14*
X1470D1*
X2156D2*
X2470D1*
X3155D2*
X3456D1*
X9733D2*
X11873D1*
X1273Y10873D2*
X1391D1*
X2235D2*
X2391D1*
X3234D2*
X3456D1*
X10228D2*
X11873D1*
X1273Y10754D2*
X1356D1*
X2269D2*
X2356D1*
X3268D2*
X3456D1*
X10294D2*
X11873D1*
X1273Y10635D2*
X1354D1*
X2270D2*
X2353D1*
X3272D2*
X3456D1*
X10279D2*
X11873D1*
X1273Y10517D2*
X1386D1*
X2240D2*
X2385D1*
X3240D2*
X3456D1*
X9795D2*
X11873D1*
X1273Y10398D2*
X1457D1*
X2167D2*
X2456D1*
X3169D2*
X3456D1*
X9733D2*
X11873D1*
X1273Y10279D2*
X1613D1*
X2012D2*
X2612D1*
X3013D2*
X3456D1*
X9733D2*
X9823D1*
X10577D2*
X13518D1*
X462Y10160D2*
X3476D1*
X6562D2*
X6625D1*
X7350D2*
X7412D1*
X10577D2*
X13518D1*
X462Y10042D2*
X523D1*
X1100D2*
X1525D1*
X2102D2*
X2524D1*
X3101D2*
X4045D1*
X4415D2*
X4624D1*
X6067D2*
X6812D1*
X7164D2*
X7476D1*
X10577D2*
X11873D1*
X1207Y9923D2*
X1418D1*
X2207D2*
X2417D1*
X3208D2*
X4624D1*
X6135D2*
X6812D1*
X7164D2*
X7536D1*
X10577D2*
X11492D1*
X1258Y9804D2*
X1367D1*
X2259D2*
X2366D1*
X3259D2*
X4624D1*
X6155D2*
X6812D1*
X7164D2*
X7564D1*
X7715D2*
X8194D1*
X9050D2*
X9823D1*
X10867D2*
X11363D1*
X1273Y9686D2*
X1352D1*
X2274D2*
X2350D1*
X3274D2*
X4624D1*
X6097D2*
X6812D1*
X7164D2*
X7438D1*
X7843D2*
X8222D1*
X9169D2*
X9823D1*
X10892D2*
X11245D1*
X1258Y9567D2*
X1367D1*
X2257D2*
X2368D1*
X3257D2*
X4624D1*
X5276D2*
X5494D1*
X5846D2*
X6812D1*
X7164D2*
X7427D1*
X7852D2*
X8537D1*
X9289D2*
X9823D1*
X1205Y9448D2*
X1420D1*
X2205D2*
X2421D1*
X3204D2*
X4624D1*
X5276D2*
X5494D1*
X5846D2*
X6812D1*
X7164D2*
X7502D1*
X7777D2*
X8515D1*
X9407D2*
X9836D1*
X10590D2*
X10768D1*
X462Y9330D2*
X529D1*
X1097D2*
X1528D1*
X2096D2*
X2530D1*
X3095D2*
X4624D1*
X5276D2*
X5494D1*
X5846D2*
X6812D1*
X7164D2*
X8569D1*
X8891D2*
X9036D1*
X9525D2*
X9836D1*
X10590D2*
X10768D1*
X11732D2*
X11873D1*
X462Y9211D2*
X4624D1*
X5276D2*
X5494D1*
X5846D2*
X6812D1*
X7164D2*
X9154D1*
X9645D2*
X9836D1*
X10590D2*
X10768D1*
X11732D2*
X13518D1*
X462Y9092D2*
X606D1*
X1020D2*
X1605D1*
X2019D2*
X2606D1*
X3019D2*
X4624D1*
X5276D2*
X5494D1*
X5846D2*
X6812D1*
X7164D2*
X9272D1*
X9763D2*
X9838D1*
X10590D2*
X10768D1*
X11732D2*
X11873D1*
X1172Y8974D2*
X1453D1*
X2171D2*
X2455D1*
X3170D2*
X4624D1*
X5276D2*
X5494D1*
X5846D2*
X6812D1*
X7164D2*
X9392D1*
X10590D2*
X10774D1*
X11726D2*
X11873D1*
X1241Y8855D2*
X1384D1*
X2242D2*
X2383D1*
X3242D2*
X4624D1*
X5276D2*
X5494D1*
X5846D2*
X6812D1*
X7164D2*
X9510D1*
X1271Y8736D2*
X1354D1*
X2270D2*
X2353D1*
X3272D2*
X4624D1*
X5276D2*
X5494D1*
X5846D2*
X6812D1*
X7164D2*
X9640D1*
X1269Y8618D2*
X1356D1*
X2269D2*
X2356D1*
X3268D2*
X4624D1*
X5278D2*
X5494D1*
X5846D2*
X6812D1*
X7164D2*
X10508D1*
X1232Y8499D2*
X1393D1*
X2233D2*
X2393D1*
X3232D2*
X4624D1*
X5396D2*
X5494D1*
X5846D2*
X6812D1*
X7164D2*
X7663D1*
X8057D2*
X10508D1*
X1153Y8380D2*
X1472D1*
X2152D2*
X2473D1*
X3152D2*
X4335D1*
X4445D2*
X4624D1*
X5846D2*
X6812D1*
X7164D2*
X7646D1*
X8074D2*
X10774D1*
X11726D2*
X11873D1*
X462Y8261D2*
X658D1*
X967D2*
X1658D1*
X1967D2*
X2657D1*
X2968D2*
X4191D1*
X4997D2*
X5143D1*
X5846D2*
X6812D1*
X7164D2*
X7706D1*
X8014D2*
X10768D1*
X11732D2*
X13518D1*
X462Y8143D2*
X3776D1*
X3984D2*
X4176D1*
X4997D2*
X5153D1*
X5846D2*
X6812D1*
X7164D2*
X10768D1*
X11732D2*
X12670D1*
X12830D2*
X13518D1*
X462Y8024D2*
X503D1*
X1123D2*
X1502D1*
X2122D2*
X2503D1*
X3122D2*
X3673D1*
X4085D2*
X4245D1*
X4535D2*
X4624D1*
X4997D2*
X5153D1*
X5846D2*
X6150D1*
X6330D2*
X6812D1*
X7164D2*
X9958D1*
X10322D2*
X10768D1*
X11732D2*
X12548D1*
X12952D2*
X13518D1*
X1217Y7905D2*
X1408D1*
X2218D2*
X2408D1*
X3217D2*
X3559D1*
X4089D2*
X4624D1*
X4997D2*
X5153D1*
X5846D2*
X6036D1*
X6444D2*
X6812D1*
X7164D2*
X9923D1*
X10357D2*
X10768D1*
X11732D2*
X12538D1*
X12962D2*
X13518D1*
X1264Y7787D2*
X1361D1*
X2263D2*
X2363D1*
X3262D2*
X3441D1*
X4001D2*
X4624D1*
X4997D2*
X5153D1*
X5846D2*
X6028D1*
X6452D2*
X6812D1*
X7164D2*
X9964D1*
X10316D2*
X10768D1*
X11732D2*
X12615D1*
X12885D2*
X13518D1*
X1273Y7668D2*
X1352D1*
X2274D2*
X2353D1*
X3274D2*
X3323D1*
X3855D2*
X4624D1*
X4997D2*
X5153D1*
X5846D2*
X6109D1*
X6371D2*
X6812D1*
X7164D2*
X7836D1*
X8143D2*
X8878D1*
X9221D2*
X10946D1*
X11514D2*
X13518D1*
X1252Y7549D2*
X1373D1*
X2252D2*
X2372D1*
X3735D2*
X4624D1*
X4997D2*
X5153D1*
X5846D2*
X6812D1*
X7164D2*
X7776D1*
X8205D2*
X8833D1*
X9266D2*
X10946D1*
X11514D2*
X13518D1*
X1192Y7431D2*
X1433D1*
X2194D2*
X2432D1*
X3617D2*
X4624D1*
X4997D2*
X5179D1*
X5846D2*
X6812D1*
X7164D2*
X7795D1*
X8186D2*
X8865D1*
X9234D2*
X10946D1*
X11514D2*
X13518D1*
X462Y7312D2*
X553D1*
X1070D2*
X1555D1*
X2072D2*
X2443D1*
X3146D2*
X3208D1*
X3592D2*
X4624D1*
X4997D2*
X5087D1*
X5846D2*
X6812D1*
X7164D2*
X10946D1*
X11514D2*
X13518D1*
X462Y7193D2*
X2325D1*
X3592D2*
X4624D1*
X4997D2*
X5054D1*
X5846D2*
X6812D1*
X7164D2*
X11383D1*
X12570D2*
X13518D1*
X462Y7075D2*
X572D1*
X1052D2*
X1573D1*
X2053D2*
X2205D1*
X3152D2*
X3208D1*
X3592D2*
X4624D1*
X4997D2*
X5096D1*
X5846D2*
X6812D1*
X7436D2*
X10946D1*
X12577D2*
X13518D1*
X1185Y6956D2*
X1440D1*
X3592D2*
X4624D1*
X4997D2*
X5153D1*
X5846D2*
X6812D1*
X7455D2*
X10946D1*
X1249Y6837D2*
X1376D1*
X3592D2*
X4624D1*
X5844D2*
X6812D1*
X7393D2*
X10946D1*
X1273Y6719D2*
X1352D1*
X3592D2*
X4624D1*
X5764D2*
X5867D1*
X6193D2*
X6812D1*
X7164D2*
X10946D1*
X1265Y6600D2*
X1360D1*
X3592D2*
X4624D1*
X5645D2*
X5815D1*
X6245D2*
X6812D1*
X7164D2*
X9955D1*
X1224Y6481D2*
X1401D1*
X3592D2*
X4596D1*
X5525D2*
X5839D1*
X6221D2*
X6812D1*
X7164D2*
X9443D1*
X1134Y6362D2*
X1491D1*
X3135D2*
X3208D1*
X3592D2*
X4613D1*
X5407D2*
X6812D1*
X7222D2*
X9368D1*
X462Y6244D2*
X730D1*
X896D2*
X1729D1*
X1895D2*
X2134D1*
X2507D2*
X2730D1*
X2895D2*
X3208D1*
X3592D2*
X4798D1*
X5289D2*
X6851D1*
X7340D2*
X9379D1*
X11531D2*
X13518D1*
X462Y6125D2*
X700D1*
X926D2*
X1699D1*
X1925D2*
X2134D1*
X2507D2*
X2698D1*
X2927D2*
X3208D1*
X3592D2*
X4684D1*
X5169D2*
X6970D1*
X7460D2*
X9505D1*
X9654D2*
X9799D1*
X11531D2*
X13518D1*
X1142Y6006D2*
X1483D1*
X3140D2*
X3208D1*
X3592D2*
X4654D1*
X5051D2*
X6874D1*
X7579D2*
X9799D1*
X11531D2*
X13518D1*
X1226Y5888D2*
X1399D1*
X3592D2*
X4654D1*
X5006D2*
X5389D1*
X7697D2*
X9761D1*
X11531D2*
X13518D1*
X1265Y5769D2*
X1360D1*
X3592D2*
X4654D1*
X5006D2*
X5271D1*
X7817D2*
X9791D1*
X11531D2*
X12248D1*
X12542D2*
X13518D1*
X1273Y5650D2*
X1352D1*
X3592D2*
X4622D1*
X5038D2*
X5151D1*
X5670D2*
X6289D1*
X6671D2*
X6880D1*
X7935D2*
X9784D1*
X11531D2*
X12182D1*
X12609D2*
X13518D1*
X1247Y5532D2*
X1378D1*
X3592D2*
X4622D1*
X5627D2*
X6265D1*
X6695D2*
X7225D1*
X8051D2*
X9784D1*
X11531D2*
X12197D1*
X12594D2*
X13518D1*
X1181Y5413D2*
X1444D1*
X3592D2*
X4405D1*
X5726D2*
X6011D1*
X6645D2*
X7286D1*
X7594D2*
X7682D1*
X8087D2*
X9784D1*
X11531D2*
X12160D1*
X12581D2*
X13518D1*
X462Y5294D2*
X583D1*
X1042D2*
X1583D1*
X2042D2*
X2134D1*
X2507D2*
X2582D1*
X3041D2*
X3208D1*
X3592D2*
X4275D1*
X5730D2*
X5983D1*
X6416D2*
X7733D1*
X8087D2*
X9784D1*
X11531D2*
X12165D1*
X12574D2*
X13518D1*
X462Y5176D2*
X2134D1*
X2507D2*
X3208D1*
X3592D2*
X4157D1*
X5640D2*
X6034D1*
X6365D2*
X7733D1*
X8087D2*
X8165D1*
X8336D2*
X9784D1*
X11531D2*
X12216D1*
X12615D2*
X13518D1*
X462Y5057D2*
X544D1*
X1080D2*
X1545D1*
X2081D2*
X2134D1*
X2507D2*
X2546D1*
X3080D2*
X3208D1*
X3592D2*
X4037D1*
X4556D2*
X4733D1*
X8454D2*
X9784D1*
X11531D2*
X12201D1*
X12628D2*
X13518D1*
X1198Y4938D2*
X1427D1*
X3592D2*
X3919D1*
X4438D2*
X4615D1*
X8462D2*
X9784D1*
X12180D2*
X12270D1*
X12560D2*
X13518D1*
X1254Y4820D2*
X1371D1*
X4984D2*
X5100D1*
X7299D2*
X7463D1*
X8874D2*
X9038D1*
X9662D2*
X9784D1*
X1273Y4701D2*
X1352D1*
X10397D2*
X10667D1*
X1262Y4582D2*
X1363D1*
X10397D2*
X10667D1*
X1215Y4463D2*
X1410D1*
X10282D2*
X10667D1*
X462Y4345D2*
X510D1*
X1115D2*
X1510D1*
X3114D2*
X3208D1*
X10419D2*
X10667D1*
X462Y4226D2*
X2134D1*
X2507D2*
X3208D1*
X10451D2*
X10667D1*
X462Y4107D2*
X641D1*
X984D2*
X1641D1*
X1984D2*
X2134D1*
X2507D2*
X2640D1*
X2985D2*
X3208D1*
X10427D2*
X10667D1*
X12577D2*
X13518D1*
X1159Y3989D2*
X1466D1*
X3157D2*
X3208D1*
X10365D2*
X10663D1*
X12532D2*
X13518D1*
X1235Y3870D2*
X1390D1*
X4993D2*
X5045D1*
X5780D2*
X5832D1*
X6568D2*
X6621D1*
X7355D2*
X7406D1*
X8930D2*
X8981D1*
X10262D2*
X10545D1*
X11042D2*
X11119D1*
X11381D2*
X13518D1*
X1269Y3751D2*
X1356D1*
X3695D2*
X3829D1*
X4348D2*
X6013D1*
X6388D2*
X7660D1*
X8347D2*
X9400D1*
X10185D2*
X10427D1*
X10916D2*
X10967D1*
X11535D2*
X13518D1*
X1271Y3633D2*
X1354D1*
X3814D2*
X3949D1*
X4466D2*
X6013D1*
X6765D2*
X7465D1*
X8743D2*
X9109D1*
X9190D2*
X9456D1*
X9776D2*
X10307D1*
X10798D2*
X10863D1*
X11535D2*
X13518D1*
X1239Y3514D2*
X1386D1*
X3240D2*
X3400D1*
X3932D2*
X4067D1*
X4584D2*
X5207D1*
X5893D2*
X6013D1*
X7136D2*
X7423D1*
X7856D2*
X7993D1*
X8777D2*
X8951D1*
X9349D2*
X10189D1*
X10678D2*
X10737D1*
X11535D2*
X13518D1*
X1166Y3395D2*
X1459D1*
X3167D2*
X3518D1*
X4052D2*
X4185D1*
X4704D2*
X5207D1*
X5893D2*
X6013D1*
X7204D2*
X7459D1*
X7822D2*
X7993D1*
X8347D2*
X8387D1*
X8734D2*
X8936D1*
X9364D2*
X10071D1*
X10560D2*
X10725D1*
X11522D2*
X11708D1*
X11882D2*
X13518D1*
X462Y3277D2*
X619D1*
X1007D2*
X1618D1*
X2006D2*
X2134D1*
X2507D2*
X2620D1*
X3005D2*
X3638D1*
X4170D2*
X4305D1*
X4822D2*
X5207D1*
X7475D2*
X7993D1*
X8347D2*
X9002D1*
X9298D2*
X9951D1*
X10442D2*
X10768D1*
X12277D2*
X13518D1*
X462Y3158D2*
X2134D1*
X2507D2*
X3756D1*
X4288D2*
X4423D1*
X4940D2*
X5207D1*
X7494D2*
X7993D1*
X8347D2*
X9833D1*
X10324D2*
X10768D1*
X12305D2*
X13518D1*
X462Y3039D2*
X521D1*
X1104D2*
X1521D1*
X3105D2*
X3874D1*
X4346D2*
X4541D1*
X5060D2*
X5207D1*
X7059D2*
X7127D1*
X7432D2*
X7993D1*
X8347D2*
X9715D1*
X10204D2*
X10768D1*
X12259D2*
X13518D1*
X1209Y2921D2*
X1416D1*
X3208D2*
X3964D1*
X4348D2*
X4660D1*
X7179D2*
X7993D1*
X8347D2*
X8481D1*
X8698D2*
X9596D1*
X10085D2*
X10768D1*
X1260Y2802D2*
X1365D1*
X3259D2*
X3904D1*
X5893D2*
X6004D1*
X7297D2*
X7993D1*
X8347D2*
X8384D1*
X8797D2*
X9476D1*
X9967D2*
X10768D1*
X1273Y2683D2*
X1352D1*
X3274D2*
X3904D1*
X4762D2*
X4898D1*
X5893D2*
X6122D1*
X8799D2*
X9358D1*
X9847D2*
X10774D1*
X1256Y2564D2*
X1369D1*
X3257D2*
X3904D1*
X4762D2*
X5016D1*
X5893D2*
X6240D1*
X8411D2*
X8474D1*
X8707D2*
X9240D1*
X9729D2*
X10508D1*
X1204Y2446D2*
X1421D1*
X3204D2*
X3904D1*
X4762D2*
X5136D1*
X5893D2*
X6270D1*
X8411D2*
X9120D1*
X9611D2*
X10508D1*
X462Y2327D2*
X533D1*
X1093D2*
X1532D1*
X2092D2*
X2166D1*
X3094D2*
X3904D1*
X4762D2*
X5207D1*
X5893D2*
X6270D1*
X8411D2*
X9002D1*
X9491D2*
X10508D1*
X462Y2208D2*
X2282D1*
X3431D2*
X3904D1*
X4762D2*
X6484D1*
X8411D2*
X8884D1*
X9373D2*
X10508D1*
X462Y2090D2*
X600D1*
X1025D2*
X1600D1*
X2025D2*
X2402D1*
X3549D2*
X4318D1*
X4670D2*
X6602D1*
X9255D2*
X10774D1*
X11726D2*
X13518D1*
X1174Y1971D2*
X1451D1*
X2173D2*
X2453D1*
X3667D2*
X3889D1*
X4745D2*
X4856D1*
X5224D2*
X6722D1*
X9137D2*
X10768D1*
X11732D2*
X11873D1*
X1243Y1852D2*
X1382D1*
X2242D2*
X2383D1*
X3787D2*
X3889D1*
X4745D2*
X4786D1*
X5257D2*
X6840D1*
X9142D2*
X10768D1*
X1271Y1734D2*
X1354D1*
X2272D2*
X2353D1*
X3272D2*
X3386D1*
X5424D2*
X5685D1*
X6035D2*
X8196D1*
X8625D2*
X8771D1*
X9260D2*
X10768D1*
X1267Y1615D2*
X1358D1*
X2269D2*
X2356D1*
X3268D2*
X3506D1*
X5467D2*
X5644D1*
X6077D2*
X8254D1*
X8567D2*
X8890D1*
X9380D2*
X10768D1*
X1232Y1496D2*
X1393D1*
X2231D2*
X2395D1*
X3230D2*
X3636D1*
X4901D2*
X5068D1*
X5432D2*
X5678D1*
X6043D2*
X6806D1*
X7153D2*
X9010D1*
X9499D2*
X10768D1*
X1149Y1378D2*
X1476D1*
X2150D2*
X2475D1*
X3150D2*
X3613D1*
X4745D2*
X6763D1*
X7196D2*
X9128D1*
X9617D2*
X11254D1*
X462Y1259D2*
X666D1*
X960D2*
X1665D1*
X1959D2*
X2666D1*
X2959D2*
X3653D1*
X4007D2*
X6795D1*
X7164D2*
X8651D1*
X9009D2*
X9246D1*
X9785D2*
X11873D1*
X462Y1140D2*
X8614D1*
X9047D2*
X9366D1*
X9817D2*
X13518D1*
X462Y1022D2*
X501D1*
X1125D2*
X1500D1*
X2124D2*
X2500D1*
X3125D2*
X8651D1*
X9009D2*
X9430D1*
X9770D2*
X13518D1*
X1219Y903D2*
X1406D1*
X2218D2*
X2406D1*
X3219D2*
X11873D1*
X1264Y784D2*
X1361D1*
X2263D2*
X2361D1*
X3264D2*
X11873D1*
X1273Y665D2*
X1352D1*
X2274D2*
X2353D1*
X3274D2*
X11873D1*
X1250Y547D2*
X1375D1*
X2252D2*
X2374D1*
X3251D2*
X11873D1*
X1192Y428D2*
X1433D1*
X2192D2*
X2434D1*
X3191D2*
X11873D1*
X10577Y9123D2*
X10578Y8907D1*
X10785D1*
Y8994D1*
X10780Y8993D1*
Y9531D1*
X10755Y9517D1*
X10697Y9502D1*
X10638Y9504D1*
X10581Y9524D1*
X10564Y9536D1*
X10565Y9475D1*
X10578Y9477D1*
X10576Y8997D1*
X10520Y8643D2*
X9848D1*
Y8720D1*
X9727Y8718D1*
X9668Y8729D1*
X9611Y8766D1*
X8933Y9444D1*
X8926Y9411D1*
X8901Y9357D1*
X8861Y9312D1*
X8810Y9281D1*
X8752Y9266D1*
X8692Y9269D1*
X8635Y9288D1*
X8587Y9323D1*
X8551Y9371D1*
X8530Y9427D1*
X8526Y9487D1*
X8539Y9545D1*
X8569Y9597D1*
X8600Y9626D1*
X8533Y9625D1*
X8490Y9601D1*
X8432Y9586D1*
X8372Y9589D1*
X8315Y9608D1*
X8267Y9643D1*
X8231Y9691D1*
X8210Y9747D1*
X8206Y9807D1*
X8219Y9865D1*
X8243Y9905D1*
X7812D1*
X7770Y9881D1*
X7712Y9866D1*
X7652Y9869D1*
X7595Y9888D1*
X7547Y9923D1*
X7511Y9971D1*
X7490Y10027D1*
X7486Y10087D1*
X7492Y10114D1*
X7462Y10126D1*
X7420Y10168D1*
X7404Y10226D1*
Y11013D1*
X7421Y11071D1*
X7410Y11110D1*
X7303D1*
X7343Y11071D1*
X7359Y11013D1*
Y10226D1*
X7343Y10168D1*
X7301Y10126D1*
X7244Y10111D1*
X7152D1*
X7153Y7171D1*
X7176Y7180D1*
X7235Y7190D1*
X7294Y7182D1*
X7349Y7158D1*
X7394Y7120D1*
X7427Y7069D1*
X7443Y7012D1*
X7445Y6985D1*
X7436Y6926D1*
X7411Y6872D1*
X7371Y6827D1*
X7320Y6796D1*
X7262Y6781D1*
X7202Y6784D1*
X7151Y6802D1*
X7153Y6599D1*
Y6421D1*
X8027Y5547D1*
X8060Y5497D1*
X8075Y5430D1*
Y5117D1*
X8089Y5111D1*
X8133Y5153D1*
X8186Y5179D1*
X8245Y5190D1*
X8304Y5182D1*
X8359Y5158D1*
X8404Y5119D1*
X8437Y5069D1*
X8453Y5012D1*
X8455Y4985D1*
X8446Y4926D1*
X8421Y4872D1*
X8382Y4828D1*
X8842Y4826D1*
X8876Y4813D1*
X8904Y4791D1*
X8923Y4761D1*
X8933Y4726D1*
Y3926D1*
X8928Y3891D1*
X8911Y3859D1*
X8886Y3834D1*
X8854Y3817D1*
X8819Y3811D1*
X8334D1*
X8335Y2784D1*
X8354Y2771D1*
X8386Y2757D1*
X8399Y2815D1*
X8429Y2867D1*
X8473Y2908D1*
X8526Y2935D1*
X8585Y2945D1*
X8644Y2937D1*
X8699Y2913D1*
X8744Y2875D1*
X8777Y2824D1*
X8793Y2767D1*
X8795Y2740D1*
X8786Y2681D1*
X8761Y2627D1*
X8721Y2582D1*
X8670Y2551D1*
X8612Y2536D1*
X8552Y2539D1*
X8495Y2558D1*
X8447Y2593D1*
X8411Y2641D1*
X8400Y2671D1*
Y2114D1*
X8801Y2115D1*
X10680Y3993D1*
X10679Y4791D1*
X10386Y4790D1*
X10385Y4515D1*
X10353D1*
X10352Y4498D1*
X9994D1*
X10050Y4480D1*
X10180D1*
X10239Y4473D1*
X10296Y4453D1*
X10346Y4420D1*
X10387Y4377D1*
X10418Y4325D1*
X10435Y4268D1*
X10440Y4208D1*
X10430Y4149D1*
X10407Y4094D1*
X10372Y4045D1*
X10351Y4027D1*
X10352Y3947D1*
X10253D1*
X10255Y3915D1*
X10246Y3856D1*
X10221Y3802D1*
X10181Y3757D1*
X10130Y3726D1*
X10072Y3711D1*
X10012Y3714D1*
X9955Y3733D1*
X9927Y3754D1*
X9892Y3736D1*
X9834Y3721D1*
X9814Y3722D1*
X9786Y3661D1*
X9746Y3617D1*
X9695Y3586D1*
X9637Y3571D1*
X9578Y3573D1*
X9521Y3593D1*
X9473Y3628D1*
X9436Y3675D1*
X9416Y3731D1*
X9412Y3791D1*
X9416Y3811D1*
X9094D1*
X9037Y3827D1*
X8995Y3869D1*
X8979Y3926D1*
Y4714D1*
X8995Y4771D1*
X9037Y4813D1*
X9094Y4829D1*
X9606D1*
X9663Y4813D1*
X9705Y4771D1*
X9721Y4714D1*
Y4704D1*
X9794Y4714D1*
X9795Y5665D1*
X9805D1*
X9806Y5709D1*
X9810Y5750D1*
Y5759D1*
X9798Y5780D1*
X9778Y5836D1*
X9775Y5896D1*
X9789Y5954D1*
X9809Y5987D1*
X9810Y6157D1*
X9701Y6155D1*
X9660Y6131D1*
X9602Y6116D1*
X9542Y6119D1*
X9485Y6138D1*
X9437Y6173D1*
X9401Y6221D1*
X9380Y6277D1*
X9376Y6337D1*
X9389Y6395D1*
X9419Y6447D1*
X9463Y6488D1*
X9516Y6515D1*
X9575Y6525D1*
X9634Y6517D1*
X9689Y6493D1*
X9699Y6485D1*
X9811D1*
X9810Y6520D1*
X9888Y6521D1*
X10013Y6647D1*
X10063Y6680D1*
X10130Y6695D1*
X10780D1*
X10839Y6684D1*
X10897Y6647D1*
X10971Y6572D1*
X10970Y6706D1*
X10958Y6707D1*
Y7133D1*
X11083D1*
X11126Y7158D1*
X11183Y7175D1*
X11243Y7180D1*
X11302Y7170D1*
X11357Y7147D1*
X11377Y7132D1*
X11388Y7143D1*
X11393Y7186D1*
X11410Y7218D1*
X11435Y7243D1*
X11459Y7257D1*
X11377Y7258D1*
X11328Y7231D1*
X11287Y7218D1*
X11244Y7212D1*
X11201Y7213D1*
X11158Y7221D1*
X11118Y7237D1*
X11082Y7258D1*
X10958D1*
X10960Y7684D1*
X10940Y7713D1*
X10780D1*
Y8352D1*
X10786D1*
X10784Y8438D1*
X10520D1*
Y8643D1*
X9848Y9046D2*
X9850Y9123D1*
X9848Y9177D1*
Y9468D1*
X9835Y9466D1*
Y9905D1*
X8937D1*
X9794Y9049D1*
X9849Y9048D1*
X9848Y9117D1*
X1262Y11110D2*
Y10238D1*
X450D1*
Y9953D1*
X520Y10029D1*
X568Y10065D1*
X621Y10094D1*
X677Y10116D1*
X735Y10130D1*
X795Y10137D1*
X854Y10135D1*
X914Y10125D1*
X971Y10108D1*
X1026Y10083D1*
X1076Y10051D1*
X1122Y10013D1*
X1163Y9969D1*
X1197Y9920D1*
X1225Y9866D1*
X1245Y9810D1*
X1257Y9751D1*
X1262Y9687D1*
X1258Y9628D1*
X1246Y9569D1*
X1226Y9512D1*
X1199Y9459D1*
X1165Y9409D1*
X1125Y9365D1*
X1080Y9326D1*
X1029Y9294D1*
X975Y9268D1*
X918Y9250D1*
X858Y9240D1*
X798Y9238D1*
X739Y9244D1*
X680Y9258D1*
X624Y9279D1*
X572Y9308D1*
X523Y9343D1*
X480Y9385D1*
X451Y9422D1*
X450Y8952D1*
X486Y8996D1*
X539Y9044D1*
X599Y9083D1*
X665Y9112D1*
X735Y9130D1*
X807Y9137D1*
X878Y9132D1*
X948Y9116D1*
X1015Y9089D1*
X1076Y9051D1*
X1131Y9005D1*
X1178Y8950D1*
X1215Y8888D1*
X1242Y8821D1*
X1257Y8751D1*
X1262Y8675D1*
X1254Y8604D1*
X1235Y8535D1*
X1205Y8469D1*
X1165Y8409D1*
X1117Y8357D1*
X1060Y8312D1*
X997Y8278D1*
X929Y8253D1*
X858Y8240D1*
X786Y8239D1*
X715Y8249D1*
X647Y8270D1*
X582Y8302D1*
X523Y8343D1*
X472Y8394D1*
X450Y8422D1*
Y7954D1*
X503Y8013D1*
X558Y8058D1*
X621Y8094D1*
X688Y8119D1*
X759Y8134D1*
X831Y8137D1*
X902Y8128D1*
X971Y8108D1*
X1036Y8077D1*
X1095Y8037D1*
X1148Y7987D1*
X1191Y7930D1*
X1225Y7866D1*
X1248Y7798D1*
X1260Y7727D1*
Y7652D1*
X1249Y7581D1*
X1226Y7512D1*
X1193Y7448D1*
X1150Y7391D1*
X1098Y7341D1*
X1040Y7300D1*
X975Y7268D1*
X906Y7248D1*
X834Y7239D1*
X763Y7241D1*
X692Y7255D1*
X624Y7279D1*
X562Y7315D1*
X505Y7359D1*
X457Y7412D1*
X450Y7422D1*
Y6953D1*
X494Y7005D1*
X549Y7051D1*
X610Y7089D1*
X677Y7116D1*
X747Y7132D1*
X819Y7137D1*
X890Y7130D1*
X960Y7112D1*
X1026Y7083D1*
X1086Y7044D1*
X1139Y6996D1*
X1184Y6940D1*
X1220Y6877D1*
X1245Y6810D1*
X1259Y6739D1*
X1261Y6664D1*
X1252Y6592D1*
X1231Y6523D1*
X1199Y6459D1*
X1158Y6400D1*
X1108Y6349D1*
X1050Y6306D1*
X986Y6273D1*
X918Y6250D1*
X846Y6239D1*
X775Y6240D1*
X704Y6251D1*
X635Y6274D1*
X572Y6308D1*
X514Y6351D1*
X465Y6403D1*
X450Y6422D1*
Y5952D1*
X486Y5996D1*
X539Y6044D1*
X599Y6083D1*
X665Y6112D1*
X735Y6130D1*
X807Y6137D1*
X878Y6132D1*
X948Y6116D1*
X1015Y6089D1*
X1076Y6051D1*
X1131Y6005D1*
X1178Y5950D1*
X1215Y5888D1*
X1242Y5821D1*
X1257Y5751D1*
X1262Y5675D1*
X1254Y5604D1*
X1235Y5535D1*
X1205Y5469D1*
X1165Y5409D1*
X1117Y5357D1*
X1060Y5312D1*
X997Y5278D1*
X929Y5253D1*
X858Y5240D1*
X786Y5239D1*
X715Y5249D1*
X647Y5270D1*
X582Y5302D1*
X523Y5343D1*
X472Y5394D1*
X450Y5422D1*
Y4954D1*
X503Y5013D1*
X558Y5058D1*
X621Y5094D1*
X688Y5119D1*
X759Y5134D1*
X831Y5137D1*
X902Y5128D1*
X971Y5108D1*
X1036Y5077D1*
X1095Y5037D1*
X1148Y4987D1*
X1191Y4930D1*
X1225Y4866D1*
X1248Y4798D1*
X1260Y4727D1*
Y4652D1*
X1249Y4581D1*
X1226Y4512D1*
X1193Y4448D1*
X1150Y4391D1*
X1098Y4341D1*
X1040Y4300D1*
X975Y4268D1*
X906Y4248D1*
X834Y4239D1*
X763Y4241D1*
X692Y4255D1*
X624Y4279D1*
X562Y4315D1*
X505Y4359D1*
X457Y4412D1*
X450Y4422D1*
Y3953D1*
X494Y4005D1*
X549Y4051D1*
X610Y4089D1*
X677Y4116D1*
X747Y4132D1*
X819Y4137D1*
X890Y4130D1*
X960Y4112D1*
X1026Y4083D1*
X1086Y4044D1*
X1139Y3996D1*
X1184Y3940D1*
X1220Y3877D1*
X1245Y3810D1*
X1259Y3739D1*
X1261Y3664D1*
X1252Y3592D1*
X1231Y3523D1*
X1199Y3459D1*
X1158Y3400D1*
X1108Y3349D1*
X1050Y3306D1*
X986Y3273D1*
X918Y3250D1*
X846Y3239D1*
X775Y3240D1*
X704Y3251D1*
X635Y3274D1*
X572Y3308D1*
X514Y3351D1*
X465Y3403D1*
X450Y3422D1*
Y2952D1*
X486Y2996D1*
X539Y3044D1*
X599Y3083D1*
X665Y3112D1*
X735Y3130D1*
X807Y3137D1*
X878Y3132D1*
X948Y3116D1*
X1015Y3089D1*
X1076Y3051D1*
X1131Y3005D1*
X1178Y2950D1*
X1215Y2888D1*
X1242Y2821D1*
X1257Y2751D1*
X1262Y2675D1*
X1254Y2604D1*
X1235Y2535D1*
X1205Y2469D1*
X1165Y2409D1*
X1117Y2357D1*
X1060Y2312D1*
X997Y2278D1*
X929Y2253D1*
X858Y2240D1*
X786Y2239D1*
X715Y2249D1*
X647Y2270D1*
X582Y2302D1*
X523Y2343D1*
X472Y2394D1*
X450Y2422D1*
Y1954D1*
X503Y2013D1*
X558Y2058D1*
X621Y2094D1*
X688Y2119D1*
X759Y2134D1*
X831Y2137D1*
X902Y2128D1*
X971Y2108D1*
X1036Y2077D1*
X1095Y2037D1*
X1148Y1987D1*
X1191Y1930D1*
X1225Y1866D1*
X1248Y1798D1*
X1260Y1727D1*
Y1652D1*
X1249Y1581D1*
X1226Y1512D1*
X1193Y1448D1*
X1150Y1391D1*
X1098Y1341D1*
X1040Y1300D1*
X975Y1268D1*
X906Y1248D1*
X834Y1239D1*
X763Y1241D1*
X692Y1255D1*
X624Y1279D1*
X562Y1315D1*
X505Y1359D1*
X457Y1412D1*
X450Y1422D1*
Y953D1*
X494Y1005D1*
X549Y1051D1*
X610Y1089D1*
X677Y1116D1*
X747Y1132D1*
X819Y1137D1*
X890Y1130D1*
X960Y1112D1*
X1026Y1083D1*
X1086Y1044D1*
X1139Y996D1*
X1184Y940D1*
X1220Y877D1*
X1245Y810D1*
X1259Y739D1*
X1261Y664D1*
X1252Y592D1*
X1231Y523D1*
X1199Y459D1*
X1158Y400D1*
X1110Y350D1*
X1517D1*
X1480Y385D1*
X1443Y432D1*
X1412Y483D1*
X1389Y538D1*
X1372Y596D1*
X1364Y656D1*
Y715D1*
X1372Y775D1*
X1387Y833D1*
X1410Y888D1*
X1441Y940D1*
X1478Y987D1*
X1520Y1029D1*
X1568Y1065D1*
X1621Y1094D1*
X1677Y1116D1*
X1735Y1130D1*
X1795Y1137D1*
X1854Y1135D1*
X1914Y1125D1*
X1971Y1108D1*
X2026Y1083D1*
X2076Y1051D1*
X2122Y1013D1*
X2163Y969D1*
X2197Y920D1*
X2225Y866D1*
X2245Y810D1*
X2257Y751D1*
X2262Y687D1*
X2258Y628D1*
X2246Y569D1*
X2226Y512D1*
X2199Y459D1*
X2165Y409D1*
X2107Y349D1*
X2514Y350D1*
X2443Y432D1*
X2412Y483D1*
X2389Y538D1*
X2372Y596D1*
X2364Y656D1*
Y715D1*
X2372Y775D1*
X2387Y833D1*
X2410Y888D1*
X2441Y940D1*
X2478Y987D1*
X2520Y1029D1*
X2568Y1065D1*
X2621Y1094D1*
X2677Y1116D1*
X2735Y1130D1*
X2795Y1137D1*
X2854Y1135D1*
X2914Y1125D1*
X2971Y1108D1*
X3026Y1083D1*
X3076Y1051D1*
X3122Y1013D1*
X3163Y969D1*
X3197Y920D1*
X3225Y866D1*
X3245Y810D1*
X3257Y751D1*
X3262Y687D1*
X3258Y628D1*
X3246Y569D1*
X3226Y512D1*
X3199Y459D1*
X3165Y409D1*
X3107Y349D1*
X4650Y350D1*
X11886D1*
X11885Y1015D1*
X13530D1*
Y1184D1*
X11885Y1185D1*
Y1341D1*
X11400Y1340D1*
X11341Y1347D1*
X11284Y1367D1*
X11244Y1393D1*
X11202Y1431D1*
X10780Y1430D1*
Y2070D1*
X10786D1*
X10784Y2155D1*
X10520D1*
Y2625D1*
X10785D1*
Y2712D1*
X10780Y2710D1*
Y3308D1*
X10758Y3338D1*
X10737Y3394D1*
X10733Y3454D1*
X10747Y3512D1*
X10777Y3564D1*
X10820Y3605D1*
X10874Y3632D1*
X10932Y3642D1*
X10979Y3637D1*
X10978Y3814D1*
X10954Y3801D1*
X9067Y1914D1*
X9631Y1352D1*
X9654Y1347D1*
X9709Y1323D1*
X9754Y1285D1*
X9787Y1234D1*
X9803Y1177D1*
X9805Y1150D1*
X9796Y1091D1*
X9771Y1037D1*
X9731Y992D1*
X9680Y961D1*
X9622Y946D1*
X9562Y949D1*
X9505Y968D1*
X9457Y1003D1*
X9421Y1051D1*
X9399Y1116D1*
X8732Y1785D1*
X8614D1*
X8606Y1701D1*
X8581Y1647D1*
X8541Y1602D1*
X8490Y1571D1*
X8432Y1556D1*
X8372Y1559D1*
X8315Y1578D1*
X8267Y1613D1*
X8231Y1661D1*
X8210Y1717D1*
X8208Y1786D1*
X6988Y1785D1*
X6929Y1796D1*
X6871Y1833D1*
X6496Y2208D1*
X6463Y2257D1*
X6449Y2317D1*
X6452Y2288D1*
X6404Y2317D1*
X6282D1*
Y2536D1*
X5881Y2936D1*
Y2317D1*
X5219D1*
Y2390D1*
X5166Y2426D1*
X3781Y3812D1*
X3623Y3811D1*
X4283Y3151D1*
X4317Y3103D1*
X4334Y3049D1*
X4336Y2825D1*
X4395Y2823D1*
X4450Y2825D1*
X4750D1*
Y2095D1*
X4658D1*
X4659Y2015D1*
X4734D1*
Y1815D1*
X4762D1*
X4837Y1890D1*
X4849Y1935D1*
X4879Y1987D1*
X4923Y2028D1*
X4976Y2055D1*
X5035Y2065D1*
X5094Y2057D1*
X5149Y2033D1*
X5194Y1995D1*
X5227Y1944D1*
X5243Y1887D1*
X5245Y1860D1*
X5238Y1814D1*
X5304Y1807D1*
X5359Y1783D1*
X5404Y1745D1*
X5437Y1694D1*
X5453Y1637D1*
X5455Y1610D1*
X5446Y1551D1*
X5421Y1497D1*
X5381Y1452D1*
X5330Y1421D1*
X5272Y1406D1*
X5212Y1409D1*
X5155Y1428D1*
X5107Y1463D1*
X5071Y1511D1*
X5050Y1567D1*
X5048Y1636D1*
X4947Y1533D1*
X4897Y1500D1*
X4830Y1485D1*
X4734D1*
Y1285D1*
X4255Y1287D1*
X4200Y1285D1*
X4010D1*
X4001Y1267D1*
X3961Y1222D1*
X3910Y1191D1*
X3852Y1176D1*
X3792Y1179D1*
X3735Y1198D1*
X3687Y1233D1*
X3651Y1281D1*
X3630Y1337D1*
X3626Y1397D1*
X3639Y1455D1*
X3659Y1489D1*
X3606Y1526D1*
X3168Y1965D1*
X3225Y1866D1*
X3245Y1810D1*
X3257Y1751D1*
X3262Y1687D1*
X3258Y1628D1*
X3246Y1569D1*
X3226Y1512D1*
X3199Y1459D1*
X3165Y1409D1*
X3125Y1365D1*
X3080Y1326D1*
X3029Y1294D1*
X2975Y1268D1*
X2918Y1250D1*
X2858Y1240D1*
X2798Y1238D1*
X2739Y1244D1*
X2680Y1258D1*
X2624Y1279D1*
X2572Y1308D1*
X2523Y1343D1*
X2480Y1385D1*
X2443Y1432D1*
X2412Y1483D1*
X2389Y1538D1*
X2372Y1596D1*
X2364Y1656D1*
Y1715D1*
X2372Y1775D1*
X2387Y1833D1*
X2410Y1888D1*
X2441Y1940D1*
X2498Y2007D1*
X2232Y2271D1*
X2196Y2306D1*
X2158Y2364D1*
X2125Y2365D1*
X2080Y2326D1*
X2029Y2294D1*
X1975Y2268D1*
X1918Y2250D1*
X1858Y2240D1*
X1798Y2238D1*
X1739Y2244D1*
X1680Y2258D1*
X1624Y2279D1*
X1572Y2308D1*
X1523Y2343D1*
X1480Y2385D1*
X1443Y2432D1*
X1412Y2483D1*
X1389Y2538D1*
X1372Y2596D1*
X1364Y2656D1*
Y2715D1*
X1372Y2775D1*
X1387Y2833D1*
X1410Y2888D1*
X1441Y2940D1*
X1478Y2987D1*
X1520Y3029D1*
X1568Y3065D1*
X1621Y3094D1*
X1677Y3116D1*
X1735Y3130D1*
X1795Y3137D1*
X1854Y3135D1*
X1914Y3125D1*
X1971Y3108D1*
X2026Y3083D1*
X2076Y3051D1*
X2147Y2987D1*
X2145Y3384D1*
X2080Y3326D1*
X2029Y3294D1*
X1975Y3268D1*
X1918Y3250D1*
X1858Y3240D1*
X1798Y3238D1*
X1739Y3244D1*
X1680Y3258D1*
X1624Y3279D1*
X1572Y3308D1*
X1523Y3343D1*
X1480Y3385D1*
X1443Y3432D1*
X1412Y3483D1*
X1389Y3538D1*
X1372Y3596D1*
X1364Y3656D1*
Y3715D1*
X1372Y3775D1*
X1387Y3833D1*
X1410Y3888D1*
X1441Y3940D1*
X1478Y3987D1*
X1520Y4029D1*
X1568Y4065D1*
X1621Y4094D1*
X1677Y4116D1*
X1735Y4130D1*
X1795Y4137D1*
X1854Y4135D1*
X1914Y4125D1*
X1971Y4108D1*
X2026Y4083D1*
X2076Y4051D1*
X2147Y3987D1*
X2145Y4290D1*
Y4386D1*
X2080Y4326D1*
X2029Y4294D1*
X1975Y4268D1*
X1918Y4250D1*
X1858Y4240D1*
X1798Y4238D1*
X1739Y4244D1*
X1680Y4258D1*
X1624Y4279D1*
X1572Y4308D1*
X1523Y4343D1*
X1480Y4385D1*
X1443Y4432D1*
X1412Y4483D1*
X1389Y4538D1*
X1372Y4596D1*
X1364Y4656D1*
Y4715D1*
X1372Y4775D1*
X1387Y4833D1*
X1410Y4888D1*
X1441Y4940D1*
X1478Y4987D1*
X1520Y5029D1*
X1568Y5065D1*
X1621Y5094D1*
X1677Y5116D1*
X1735Y5130D1*
X1795Y5137D1*
X1854Y5135D1*
X1914Y5125D1*
X1971Y5108D1*
X2026Y5083D1*
X2076Y5051D1*
X2147Y4987D1*
X2145Y5387D1*
X2080Y5326D1*
X2029Y5294D1*
X1975Y5268D1*
X1918Y5250D1*
X1858Y5240D1*
X1798Y5238D1*
X1739Y5244D1*
X1680Y5258D1*
X1624Y5279D1*
X1572Y5308D1*
X1523Y5343D1*
X1480Y5385D1*
X1443Y5432D1*
X1412Y5483D1*
X1389Y5538D1*
X1372Y5596D1*
X1364Y5656D1*
Y5715D1*
X1372Y5775D1*
X1387Y5833D1*
X1410Y5888D1*
X1441Y5940D1*
X1478Y5987D1*
X1520Y6029D1*
X1568Y6065D1*
X1621Y6094D1*
X1677Y6116D1*
X1735Y6130D1*
X1795Y6137D1*
X1854Y6135D1*
X1914Y6125D1*
X1971Y6108D1*
X2026Y6083D1*
X2076Y6051D1*
X2147Y5987D1*
X2145Y6384D1*
X2080Y6326D1*
X2029Y6294D1*
X1975Y6268D1*
X1918Y6250D1*
X1858Y6240D1*
X1798Y6238D1*
X1739Y6244D1*
X1680Y6258D1*
X1624Y6279D1*
X1572Y6308D1*
X1523Y6343D1*
X1480Y6385D1*
X1443Y6432D1*
X1412Y6483D1*
X1389Y6538D1*
X1372Y6596D1*
X1364Y6656D1*
Y6715D1*
X1372Y6775D1*
X1387Y6833D1*
X1410Y6888D1*
X1441Y6940D1*
X1478Y6987D1*
X1520Y7029D1*
X1568Y7065D1*
X1621Y7094D1*
X1677Y7116D1*
X1735Y7130D1*
X1795Y7137D1*
X1854Y7135D1*
X1914Y7125D1*
X1971Y7108D1*
X2026Y7083D1*
X2076Y7051D1*
X2122Y7013D1*
X2152Y6981D1*
X2190Y7047D1*
X2456Y7314D1*
X2514Y7352D1*
X2480Y7385D1*
X2443Y7432D1*
X2412Y7483D1*
X2389Y7538D1*
X2372Y7596D1*
X2364Y7656D1*
Y7715D1*
X2372Y7775D1*
X2387Y7833D1*
X2410Y7888D1*
X2441Y7940D1*
X2478Y7987D1*
X2520Y8029D1*
X2568Y8065D1*
X2621Y8094D1*
X2677Y8116D1*
X2735Y8130D1*
X2795Y8137D1*
X2854Y8135D1*
X2914Y8125D1*
X2971Y8108D1*
X3026Y8083D1*
X3076Y8051D1*
X3122Y8013D1*
X3163Y7969D1*
X3197Y7920D1*
X3225Y7866D1*
X3245Y7810D1*
X3257Y7751D1*
X3262Y7687D1*
X3258Y7628D1*
X3247Y7574D1*
X3273Y7607D1*
X3683Y8017D1*
X3719Y8087D1*
X3763Y8128D1*
X3816Y8155D1*
X3875Y8165D1*
X3934Y8157D1*
X3989Y8133D1*
X4034Y8095D1*
X4067Y8044D1*
X4083Y7987D1*
X4085Y7960D1*
X4076Y7901D1*
X4051Y7847D1*
X4011Y7802D1*
X3960Y7771D1*
X3940Y7766D1*
X3579Y7405D1*
X3580Y5380D1*
X3582Y4829D1*
X3820D1*
X4376Y5384D1*
X4425Y5418D1*
X4491Y5435D1*
X4697D1*
X4651Y5491D1*
X4630Y5547D1*
X4626Y5607D1*
X4639Y5665D1*
X4664Y5709D1*
X4665Y6030D1*
X4676Y6089D1*
X4713Y6147D1*
X4813Y6246D1*
X4772Y6249D1*
X4715Y6268D1*
X4667Y6303D1*
X4631Y6351D1*
X4610Y6407D1*
X4606Y6467D1*
X4619Y6525D1*
X4635Y6552D1*
Y10112D1*
X4430Y10111D1*
X4426Y10091D1*
X4401Y10037D1*
X4361Y9992D1*
X4310Y9961D1*
X4252Y9946D1*
X4192Y9949D1*
X4135Y9968D1*
X4087Y10003D1*
X4051Y10051D1*
X4029Y10113D1*
X3974Y10111D1*
X3558Y10113D1*
X3525Y10126D1*
X3497Y10149D1*
X3478Y10179D1*
X3468Y10213D1*
X3467Y11013D1*
X3473Y11048D1*
X3489Y11080D1*
X3517Y11108D1*
X3450Y11110D1*
X2971Y11108D1*
X3036Y11077D1*
X3095Y11037D1*
X3148Y10987D1*
X3191Y10930D1*
X3225Y10866D1*
X3248Y10798D1*
X3260Y10727D1*
Y10652D1*
X3249Y10581D1*
X3226Y10512D1*
X3193Y10448D1*
X3150Y10391D1*
X3098Y10341D1*
X3040Y10300D1*
X2975Y10268D1*
X2906Y10248D1*
X2834Y10239D1*
X2763Y10241D1*
X2692Y10255D1*
X2624Y10279D1*
X2562Y10315D1*
X2505Y10359D1*
X2457Y10412D1*
X2418Y10473D1*
X2389Y10538D1*
X2370Y10608D1*
X2363Y10680D1*
X2368Y10751D1*
X2383Y10821D1*
X2410Y10888D1*
X2447Y10950D1*
X2494Y11005D1*
X2549Y11051D1*
X2610Y11089D1*
X2660Y11110D1*
X1971Y11108D1*
X2026Y11083D1*
X2076Y11051D1*
X2122Y11013D1*
X2163Y10969D1*
X2197Y10920D1*
X2225Y10866D1*
X2245Y10810D1*
X2257Y10751D1*
X2262Y10687D1*
X2258Y10628D1*
X2246Y10569D1*
X2226Y10512D1*
X2199Y10459D1*
X2165Y10409D1*
X2125Y10365D1*
X2080Y10326D1*
X2029Y10294D1*
X1975Y10268D1*
X1918Y10250D1*
X1858Y10240D1*
X1798Y10238D1*
X1739Y10244D1*
X1680Y10258D1*
X1624Y10279D1*
X1572Y10308D1*
X1523Y10343D1*
X1480Y10385D1*
X1443Y10432D1*
X1412Y10483D1*
X1389Y10538D1*
X1372Y10596D1*
X1364Y10656D1*
Y10715D1*
X1372Y10775D1*
X1387Y10833D1*
X1410Y10888D1*
X1441Y10940D1*
X1478Y10987D1*
X1520Y11029D1*
X1568Y11065D1*
X1621Y11094D1*
X1661Y11110D1*
X1262D1*
X2258Y9628D2*
X2246Y9569D1*
X2226Y9512D1*
X2199Y9459D1*
X2165Y9409D1*
X2125Y9365D1*
X2080Y9326D1*
X2029Y9294D1*
X1975Y9268D1*
X1918Y9250D1*
X1858Y9240D1*
X1798Y9238D1*
X1739Y9244D1*
X1680Y9258D1*
X1624Y9279D1*
X1572Y9308D1*
X1523Y9343D1*
X1480Y9385D1*
X1443Y9432D1*
X1412Y9483D1*
X1389Y9538D1*
X1372Y9596D1*
X1364Y9656D1*
Y9715D1*
X1372Y9775D1*
X1387Y9833D1*
X1410Y9888D1*
X1441Y9940D1*
X1478Y9987D1*
X1520Y10029D1*
X1568Y10065D1*
X1621Y10094D1*
X1677Y10116D1*
X1735Y10130D1*
X1795Y10137D1*
X1854Y10135D1*
X1914Y10125D1*
X1971Y10108D1*
X2026Y10083D1*
X2076Y10051D1*
X2122Y10013D1*
X2163Y9969D1*
X2197Y9920D1*
X2225Y9866D1*
X2245Y9810D1*
X2257Y9751D1*
X2262Y9687D1*
X2258Y9628D1*
Y8628D2*
X2246Y8569D1*
X2226Y8512D1*
X2199Y8459D1*
X2165Y8409D1*
X2125Y8365D1*
X2080Y8326D1*
X2029Y8294D1*
X1975Y8268D1*
X1918Y8250D1*
X1858Y8240D1*
X1798Y8238D1*
X1739Y8244D1*
X1680Y8258D1*
X1624Y8279D1*
X1572Y8308D1*
X1523Y8343D1*
X1480Y8385D1*
X1443Y8432D1*
X1412Y8483D1*
X1389Y8538D1*
X1372Y8596D1*
X1364Y8656D1*
Y8715D1*
X1372Y8775D1*
X1387Y8833D1*
X1410Y8888D1*
X1441Y8940D1*
X1478Y8987D1*
X1520Y9029D1*
X1568Y9065D1*
X1621Y9094D1*
X1677Y9116D1*
X1735Y9130D1*
X1795Y9137D1*
X1854Y9135D1*
X1914Y9125D1*
X1971Y9108D1*
X2026Y9083D1*
X2076Y9051D1*
X2122Y9013D1*
X2163Y8969D1*
X2197Y8920D1*
X2225Y8866D1*
X2245Y8810D1*
X2257Y8751D1*
X2262Y8687D1*
X2258Y8628D1*
Y7628D2*
X2246Y7569D1*
X2226Y7512D1*
X2199Y7459D1*
X2165Y7409D1*
X2125Y7365D1*
X2080Y7326D1*
X2029Y7294D1*
X1975Y7268D1*
X1918Y7250D1*
X1858Y7240D1*
X1798Y7238D1*
X1739Y7244D1*
X1680Y7258D1*
X1624Y7279D1*
X1572Y7308D1*
X1523Y7343D1*
X1480Y7385D1*
X1443Y7432D1*
X1412Y7483D1*
X1389Y7538D1*
X1372Y7596D1*
X1364Y7656D1*
Y7715D1*
X1372Y7775D1*
X1387Y7833D1*
X1410Y7888D1*
X1441Y7940D1*
X1478Y7987D1*
X1520Y8029D1*
X1568Y8065D1*
X1621Y8094D1*
X1677Y8116D1*
X1735Y8130D1*
X1795Y8137D1*
X1854Y8135D1*
X1914Y8125D1*
X1971Y8108D1*
X2026Y8083D1*
X2076Y8051D1*
X2122Y8013D1*
X2163Y7969D1*
X2197Y7920D1*
X2225Y7866D1*
X2245Y7810D1*
X2257Y7751D1*
X2262Y7687D1*
X2258Y7628D1*
Y1628D2*
X2246Y1569D1*
X2226Y1512D1*
X2199Y1459D1*
X2165Y1409D1*
X2125Y1365D1*
X2080Y1326D1*
X2029Y1294D1*
X1975Y1268D1*
X1918Y1250D1*
X1858Y1240D1*
X1798Y1238D1*
X1739Y1244D1*
X1680Y1258D1*
X1624Y1279D1*
X1572Y1308D1*
X1523Y1343D1*
X1480Y1385D1*
X1443Y1432D1*
X1412Y1483D1*
X1389Y1538D1*
X1372Y1596D1*
X1364Y1656D1*
Y1715D1*
X1372Y1775D1*
X1387Y1833D1*
X1410Y1888D1*
X1441Y1940D1*
X1478Y1987D1*
X1520Y2029D1*
X1568Y2065D1*
X1621Y2094D1*
X1677Y2116D1*
X1735Y2130D1*
X1795Y2137D1*
X1854Y2135D1*
X1914Y2125D1*
X1971Y2108D1*
X2026Y2083D1*
X2076Y2051D1*
X2122Y2013D1*
X2163Y1969D1*
X2197Y1920D1*
X2225Y1866D1*
X2245Y1810D1*
X2257Y1751D1*
X2262Y1687D1*
X2258Y1628D1*
X3258Y9628D2*
X3246Y9569D1*
X3226Y9512D1*
X3199Y9459D1*
X3165Y9409D1*
X3125Y9365D1*
X3080Y9326D1*
X3029Y9294D1*
X2975Y9268D1*
X2918Y9250D1*
X2858Y9240D1*
X2798Y9238D1*
X2739Y9244D1*
X2680Y9258D1*
X2624Y9279D1*
X2572Y9308D1*
X2523Y9343D1*
X2480Y9385D1*
X2443Y9432D1*
X2412Y9483D1*
X2389Y9538D1*
X2372Y9596D1*
X2364Y9656D1*
Y9715D1*
X2372Y9775D1*
X2387Y9833D1*
X2410Y9888D1*
X2441Y9940D1*
X2478Y9987D1*
X2520Y10029D1*
X2568Y10065D1*
X2621Y10094D1*
X2677Y10116D1*
X2735Y10130D1*
X2795Y10137D1*
X2854Y10135D1*
X2914Y10125D1*
X2971Y10108D1*
X3026Y10083D1*
X3076Y10051D1*
X3122Y10013D1*
X3163Y9969D1*
X3197Y9920D1*
X3225Y9866D1*
X3245Y9810D1*
X3257Y9751D1*
X3262Y9687D1*
X3258Y9628D1*
Y8628D2*
X3246Y8569D1*
X3226Y8512D1*
X3199Y8459D1*
X3165Y8409D1*
X3125Y8365D1*
X3080Y8326D1*
X3029Y8294D1*
X2975Y8268D1*
X2918Y8250D1*
X2858Y8240D1*
X2798Y8238D1*
X2739Y8244D1*
X2680Y8258D1*
X2624Y8279D1*
X2572Y8308D1*
X2523Y8343D1*
X2480Y8385D1*
X2443Y8432D1*
X2412Y8483D1*
X2389Y8538D1*
X2372Y8596D1*
X2364Y8656D1*
Y8715D1*
X2372Y8775D1*
X2387Y8833D1*
X2410Y8888D1*
X2441Y8940D1*
X2478Y8987D1*
X2520Y9029D1*
X2568Y9065D1*
X2621Y9094D1*
X2677Y9116D1*
X2735Y9130D1*
X2795Y9137D1*
X2854Y9135D1*
X2914Y9125D1*
X2971Y9108D1*
X3026Y9083D1*
X3076Y9051D1*
X3122Y9013D1*
X3163Y8969D1*
X3197Y8920D1*
X3225Y8866D1*
X3245Y8810D1*
X3257Y8751D1*
X3262Y8687D1*
X3258Y8628D1*
X3222Y7504D2*
X3199Y7459D1*
X3165Y7409D1*
X3104Y7347D1*
X3124Y7325D1*
X3157Y7274D1*
X3173Y7217D1*
X3175Y7190D1*
X3166Y7131D1*
X3141Y7077D1*
X3099Y7031D1*
X3122Y7013D1*
X3163Y6969D1*
X3197Y6920D1*
X3221Y6875D1*
Y7478D1*
X3220Y6501D2*
X3199Y6459D1*
X3165Y6409D1*
X3125Y6365D1*
X3080Y6326D1*
X3029Y6294D1*
X2975Y6268D1*
X2918Y6250D1*
X2858Y6240D1*
X2798Y6238D1*
X2739Y6244D1*
X2680Y6258D1*
X2624Y6279D1*
X2572Y6308D1*
X2523Y6343D1*
X2495Y6371D1*
Y6006D1*
X2568Y6065D1*
X2621Y6094D1*
X2677Y6116D1*
X2735Y6130D1*
X2795Y6137D1*
X2854Y6135D1*
X2914Y6125D1*
X2971Y6108D1*
X3026Y6083D1*
X3076Y6051D1*
X3122Y6013D1*
X3163Y5969D1*
X3197Y5920D1*
X3220Y5880D1*
Y6497D1*
Y5501D2*
X3199Y5459D1*
X3165Y5409D1*
X3125Y5365D1*
X3080Y5326D1*
X3029Y5294D1*
X2975Y5268D1*
X2918Y5250D1*
X2858Y5240D1*
X2798Y5238D1*
X2739Y5244D1*
X2680Y5258D1*
X2624Y5279D1*
X2572Y5308D1*
X2523Y5343D1*
X2495Y5371D1*
Y5004D1*
X2568Y5065D1*
X2621Y5094D1*
X2677Y5116D1*
X2735Y5130D1*
X2795Y5137D1*
X2854Y5135D1*
X2914Y5125D1*
X2971Y5108D1*
X3026Y5083D1*
X3076Y5051D1*
X3122Y5013D1*
X3163Y4969D1*
X3197Y4920D1*
X3221Y4875D1*
X3220Y5499D1*
Y4501D2*
X3199Y4459D1*
X3165Y4409D1*
X3125Y4365D1*
X3080Y4326D1*
X3029Y4294D1*
X2975Y4268D1*
X2918Y4250D1*
X2858Y4240D1*
X2798Y4238D1*
X2739Y4244D1*
X2680Y4258D1*
X2624Y4279D1*
X2572Y4308D1*
X2523Y4343D1*
X2495Y4371D1*
Y4007D1*
X2568Y4065D1*
X2621Y4094D1*
X2677Y4116D1*
X2735Y4130D1*
X2795Y4137D1*
X2854Y4135D1*
X2914Y4125D1*
X2971Y4108D1*
X3026Y4083D1*
X3076Y4051D1*
X3122Y4013D1*
X3163Y3969D1*
X3197Y3920D1*
X3221Y3875D1*
X3220Y4498D1*
X3261Y3667D2*
X3258Y3628D1*
X3246Y3569D1*
X3226Y3512D1*
X3199Y3459D1*
X3165Y3409D1*
X3125Y3365D1*
X3080Y3326D1*
X3029Y3294D1*
X2975Y3268D1*
X2918Y3250D1*
X2858Y3240D1*
X2798Y3238D1*
X2739Y3244D1*
X2680Y3258D1*
X2624Y3279D1*
X2572Y3308D1*
X2523Y3343D1*
X2495Y3371D1*
Y3006D1*
X2568Y3065D1*
X2621Y3094D1*
X2677Y3116D1*
X2735Y3130D1*
X2795Y3137D1*
X2854Y3135D1*
X2914Y3125D1*
X2971Y3108D1*
X3026Y3083D1*
X3076Y3051D1*
X3122Y3013D1*
X3163Y2969D1*
X3197Y2920D1*
X3225Y2866D1*
X3245Y2810D1*
X3257Y2751D1*
X3262Y2687D1*
X3258Y2628D1*
X3246Y2569D1*
X3226Y2512D1*
X3199Y2459D1*
X3165Y2409D1*
X3125Y2365D1*
X3062Y2315D1*
X3240D1*
X3299Y2305D1*
X3357Y2270D1*
X3802Y1825D1*
X3900D1*
Y2015D1*
X4331D1*
X4330Y2094D1*
X3916Y2095D1*
Y2825D1*
X3978D1*
X3976Y2949D1*
X3274Y3652D1*
X11453Y3977D2*
X11298Y3975D1*
X11238Y3970D1*
X11199Y3977D1*
X11055D1*
X11051Y3924D1*
X11034Y3878D1*
X11017Y3852D1*
X11103D1*
X11145Y3876D1*
X11202Y3894D1*
X11262Y3898D1*
X11321Y3889D1*
X11376Y3866D1*
X11396Y3852D1*
X11522D1*
Y3426D1*
X11509D1*
X11510Y3348D1*
X11652Y3350D1*
X11678Y3373D1*
X11731Y3400D1*
X11790Y3410D1*
X11849Y3402D1*
X11904Y3378D1*
X11949Y3340D1*
X11958Y3325D1*
X11973Y3338D1*
X12026Y3365D1*
X12085Y3375D1*
X12144Y3367D1*
X12199Y3343D1*
X12244Y3305D1*
X12277Y3254D1*
X12293Y3197D1*
X12295Y3170D1*
X12286Y3111D1*
X12261Y3057D1*
X12222Y3014D1*
X12473Y3015D1*
X13530D1*
X13528Y4263D1*
X13516Y4230D1*
X13493Y4202D1*
X13463Y4182D1*
X13429Y4172D1*
X12566D1*
Y4068D1*
X12556Y4033D1*
X12537Y4003D1*
X12509Y3981D1*
X12476Y3968D1*
X12427Y3965D1*
X12152Y3968D1*
X12125Y3975D1*
X12090Y3966D1*
X11503Y3965D1*
X11467Y3971D1*
X11453Y3976D1*
X11481Y7684D2*
X11502D1*
X11505Y7265D1*
X12089D1*
X12126Y7254D1*
X12163Y7265D1*
X12463D1*
X12498Y7256D1*
X12528Y7236D1*
X12551Y7208D1*
X12564Y7175D1*
X12566Y7127D1*
Y7059D1*
X13440Y7056D1*
X13473Y7043D1*
X13501Y7021D1*
X13521Y6991D1*
X13530Y6956D1*
Y8287D1*
X13463Y8285D1*
X11885D1*
X11884Y8438D1*
X11715D1*
Y8351D1*
X11720Y8352D1*
Y7713D1*
X11478D1*
X10565Y9945D2*
Y9878D1*
X10612Y9900D1*
X10671Y9910D1*
X10730Y9903D1*
X10785Y9879D1*
X10830Y9840D1*
X10862Y9790D1*
X10879Y9732D1*
X10880Y9706D1*
X10872Y9647D1*
X10865Y9631D1*
X11202Y9632D1*
X11454Y9884D1*
X11501Y9921D1*
X11555Y9946D1*
X11601Y9957D1*
X11757Y9960D1*
X11887D1*
X11885Y10115D1*
X13530D1*
Y10286D1*
X11885Y10285D1*
Y11110D1*
X9666D1*
X9691Y11090D1*
X9711Y11060D1*
X9720Y11026D1*
X9721Y10921D1*
X9755Y10925D1*
X9814Y10917D1*
X9869Y10893D1*
X9919Y10847D1*
X9963Y10888D1*
X10016Y10915D1*
X10075Y10925D1*
X10134Y10917D1*
X10189Y10893D1*
X10234Y10855D1*
X10267Y10804D1*
X10283Y10747D1*
X10285Y10720D1*
X10276Y10661D1*
X10251Y10607D1*
X10211Y10562D1*
X10160Y10531D1*
X10102Y10516D1*
X10042Y10519D1*
X9985Y10538D1*
X9937Y10573D1*
X9922Y10593D1*
X9891Y10562D1*
X9840Y10531D1*
X9782Y10516D1*
X9720Y10519D1*
X9721Y10235D1*
X9837D1*
X9835Y10300D1*
X10565D1*
Y9880D1*
X13530Y2185D2*
X11980D1*
Y2155D1*
X11715D1*
Y2068D1*
X11720Y2070D1*
Y1858D1*
X11886Y1860D1*
X11885Y2015D1*
X13530D1*
Y2186D1*
X11897Y9115D2*
X13530D1*
Y9284D1*
X11885Y9285D1*
Y9441D1*
X11744Y9440D1*
X11719Y9414D1*
X11720Y8993D1*
X11714D1*
X11716Y8907D1*
X11885Y8909D1*
Y9115D1*
X11897D1*
X5219Y2868D2*
Y3531D1*
X5881D1*
Y3387D1*
X5897Y3380D1*
X5969Y3314D1*
X6026Y3260D1*
Y3813D1*
X5944Y3811D1*
X5887Y3827D1*
X5845Y3869D1*
X5830Y3926D1*
Y4656D1*
X5783Y4612D1*
X5784Y4354D1*
Y3926D1*
X5768Y3869D1*
X5726Y3827D1*
X5669Y3811D1*
X5157D1*
X5100Y3827D1*
X5058Y3869D1*
X5042Y3926D1*
Y4714D1*
X5058Y4771D1*
X5100Y4813D1*
X5157Y4829D1*
X5534D1*
X5540Y4835D1*
X4989D1*
X4981Y4772D1*
X4996Y4714D1*
Y3926D1*
X4981Y3869D1*
X4939Y3827D1*
X4881Y3811D1*
X4370D1*
X4312Y3827D1*
X4270Y3869D1*
X4255Y3926D1*
Y4714D1*
X4270Y4771D1*
X4312Y4813D1*
X4370Y4829D1*
X4585Y4830D1*
X4596Y4889D1*
X4633Y4947D1*
X4773Y5086D1*
X4572Y5085D1*
X4209Y4721D1*
X4208Y3925D1*
X4255Y3926D1*
X4201Y3887D1*
X5219Y2868D1*
X6775Y3531D2*
X6876D1*
X6926Y3555D1*
X6985Y3565D1*
X7044Y3557D1*
X7099Y3533D1*
X7144Y3495D1*
X7177Y3444D1*
X7194Y3373D1*
X7216Y3382D1*
X7275Y3392D1*
X7334Y3385D1*
X7389Y3361D1*
X7434Y3322D1*
X7467Y3272D1*
X7483Y3214D1*
X7485Y3188D1*
X7476Y3128D1*
X7451Y3074D1*
X7411Y3030D1*
X7360Y2999D1*
X7302Y2984D1*
X7242Y2986D1*
X7185Y3006D1*
X7137Y3041D1*
X7101Y3088D1*
X7080Y3144D1*
X7078Y3176D1*
X7012Y3156D1*
X6943Y3162D1*
X6944Y3107D1*
X6961Y3102D1*
X7019Y3067D1*
X7295Y2792D1*
X8006D1*
X8005Y3561D1*
X7955Y3536D1*
X7897Y3521D1*
X7842Y3524D1*
X7845Y3510D1*
X7836Y3451D1*
X7811Y3397D1*
X7771Y3352D1*
X7720Y3321D1*
X7662Y3306D1*
X7602Y3309D1*
X7545Y3328D1*
X7497Y3363D1*
X7461Y3411D1*
X7440Y3467D1*
X7436Y3527D1*
X7449Y3585D1*
X7479Y3637D1*
X7523Y3678D1*
X7576Y3705D1*
X7635Y3715D1*
X7670Y3710D1*
X7671Y3742D1*
X7684Y3800D1*
X7691Y3811D1*
X7519D1*
X7462Y3827D1*
X7420Y3869D1*
X7404Y3926D1*
Y4714D1*
X7420Y4771D1*
X7462Y4813D1*
X7519Y4829D1*
X7589D1*
X7530Y4835D1*
X6898D1*
X6912Y4829D1*
X7244D1*
X7301Y4813D1*
X7343Y4771D1*
X7359Y4714D1*
Y3926D1*
X7343Y3869D1*
X7301Y3827D1*
X7244Y3811D1*
X6732D1*
X6675Y3827D1*
X6633Y3869D1*
X6617Y3926D1*
Y4067D1*
X6571Y4038D1*
Y3926D1*
X6556Y3869D1*
X6514Y3827D1*
X6456Y3811D1*
X6376D1*
X6375Y3602D1*
X6409Y3667D1*
X6453Y3708D1*
X6506Y3735D1*
X6565Y3745D1*
X6624Y3737D1*
X6679Y3713D1*
X6724Y3675D1*
X6757Y3624D1*
X6773Y3567D1*
X6774Y3534D1*
X5784Y10953D2*
Y10235D1*
X5830Y10286D1*
Y11013D1*
X5846Y11071D1*
X5850Y11110D1*
X5728D1*
X5768Y11071D1*
X5784Y11013D1*
Y10953D1*
X8146D2*
Y10235D1*
X8192Y10238D1*
X8194Y11037D1*
X8207Y11070D1*
X8230Y11098D1*
X8242Y11107D1*
X8091Y11110D1*
X8130Y11071D1*
X8146Y11013D1*
Y10953D1*
X8933Y11001D2*
Y10235D1*
X8979Y10238D1*
X8982Y11037D1*
X8995Y11070D1*
X9017Y11098D1*
X9030Y11110D1*
X8878D1*
X8903Y11090D1*
X8923Y11060D1*
X8933Y11026D1*
Y11001D1*
X12065Y6249D2*
X11520D1*
Y4981D1*
X11611Y4982D1*
X12101Y4980D1*
X12135Y4967D1*
X12163Y4944D1*
X12183Y4913D1*
X12318D1*
X12272Y4947D1*
X12236Y4994D1*
X12215Y5050D1*
X12211Y5110D1*
X12224Y5168D1*
X12244Y5202D1*
X12191Y5266D1*
X12170Y5322D1*
X12166Y5382D1*
X12179Y5440D1*
X12209Y5492D1*
X12224Y5506D1*
X12216Y5516D1*
X12195Y5572D1*
X12191Y5632D1*
X12205Y5690D1*
X12234Y5742D1*
X12278Y5783D1*
X12331Y5810D1*
X12390Y5820D1*
X12450Y5813D1*
X12504Y5789D1*
X12550Y5750D1*
X12582Y5700D1*
X12598Y5642D1*
X12600Y5615D1*
X12591Y5556D1*
X12566Y5502D1*
X12542Y5476D1*
X12557Y5449D1*
X12573Y5392D1*
X12575Y5365D1*
X12566Y5306D1*
X12541Y5253D1*
X12569Y5228D1*
X12602Y5178D1*
X12618Y5120D1*
X12620Y5093D1*
X12611Y5034D1*
X12586Y4980D1*
X12546Y4936D1*
X12512Y4913D1*
X13440Y4911D1*
X13473Y4898D1*
X13501Y4875D1*
X13521Y4845D1*
X13530Y4810D1*
X13528Y6409D1*
X13516Y6375D1*
X13493Y6347D1*
X13463Y6328D1*
X13429Y6318D1*
X12183Y6317D1*
X12163Y6287D1*
X12135Y6264D1*
X12102Y6251D1*
X12065Y6249D1*
X5662Y5655D2*
X5558Y5551D1*
X5629Y5523D1*
X5674Y5485D1*
X5707Y5434D1*
X5723Y5377D1*
X5725Y5350D1*
X5716Y5291D1*
X5691Y5237D1*
X5651Y5192D1*
X5604Y5164D1*
X6054Y5165D1*
X6021Y5211D1*
X6000Y5267D1*
X5996Y5327D1*
X6009Y5385D1*
X6039Y5437D1*
X6083Y5478D1*
X6136Y5505D1*
X6195Y5515D1*
X6254Y5507D1*
X6283Y5495D1*
X6276Y5567D1*
X6289Y5625D1*
X6307Y5656D1*
X5661Y5655D1*
X6883D2*
X6654D1*
X6667Y5634D1*
X6683Y5577D1*
X6685Y5550D1*
X6676Y5491D1*
X6651Y5437D1*
X6611Y5392D1*
X6560Y5361D1*
X6502Y5346D1*
X6442Y5349D1*
X6398Y5364D1*
X6405Y5310D1*
X6396Y5251D1*
X6371Y5197D1*
X6342Y5165D1*
X7650D1*
X7710Y5153D1*
X7738Y5139D1*
X7745Y5170D1*
Y5363D1*
X7628Y5479D1*
X7611Y5447D1*
X7571Y5402D1*
X7520Y5371D1*
X7462Y5356D1*
X7402Y5359D1*
X7345Y5378D1*
X7297Y5413D1*
X7261Y5461D1*
X7240Y5517D1*
X7236Y5575D1*
X7205Y5588D1*
X7157Y5623D1*
X7120Y5673D1*
X7070Y5641D1*
X7012Y5626D1*
X6952Y5629D1*
X6895Y5648D1*
X6885Y5656D1*
X6436Y7776D2*
X6411Y7722D1*
X6371Y7677D1*
X6320Y7646D1*
X6262Y7631D1*
X6202Y7634D1*
X6145Y7653D1*
X6097Y7688D1*
X6061Y7736D1*
X6040Y7792D1*
X6036Y7852D1*
X6049Y7910D1*
X6079Y7962D1*
X6123Y8003D1*
X6176Y8030D1*
X6235Y8040D1*
X6294Y8032D1*
X6349Y8008D1*
X6394Y7970D1*
X6427Y7919D1*
X6443Y7862D1*
X6445Y7835D1*
X6436Y7776D1*
X6226Y6521D2*
X6201Y6467D1*
X6161Y6422D1*
X6110Y6391D1*
X6052Y6376D1*
X5992Y6379D1*
X5935Y6398D1*
X5887Y6433D1*
X5851Y6481D1*
X5830Y6537D1*
X5826Y6597D1*
X5839Y6655D1*
X5869Y6707D1*
X5913Y6748D1*
X5966Y6775D1*
X6025Y6785D1*
X6084Y6777D1*
X6139Y6753D1*
X6184Y6715D1*
X6217Y6664D1*
X6233Y6607D1*
X6235Y6580D1*
X6226Y6521D1*
X6823Y6412D2*
X6822Y10111D1*
X6732D1*
X6675Y10126D1*
X6633Y10168D1*
X6617Y10226D1*
Y10884D1*
X6571Y10887D1*
Y10226D1*
X6556Y10168D1*
X6514Y10126D1*
X6456Y10111D1*
X6124D1*
X6029Y10016D1*
X6094Y9965D1*
X6127Y9914D1*
X6143Y9857D1*
X6145Y9830D1*
X6136Y9771D1*
X6111Y9717D1*
X6071Y9672D1*
X6020Y9641D1*
X5962Y9626D1*
X5902Y9629D1*
X5845Y9648D1*
X5835Y9656D1*
Y6870D1*
X5824Y6811D1*
X5787Y6753D1*
X4995Y5962D1*
Y5713D1*
X5017Y5674D1*
X5033Y5617D1*
X5035Y5590D1*
X5026Y5531D1*
X5011Y5499D1*
X5466Y5954D1*
X5515Y5988D1*
X5581Y6005D1*
X6882D1*
X6926Y6025D1*
X6985Y6035D1*
X7044Y6027D1*
X7099Y6003D1*
X7153Y5954D1*
X6871Y6236D1*
X6837Y6285D1*
X6823Y6352D1*
Y6412D1*
X4985Y8434D2*
Y6878D1*
X5057Y6892D1*
X5117Y6885D1*
X5136Y6877D1*
X5147Y6922D1*
X5177Y6974D1*
X5208Y7004D1*
X5175Y7018D1*
X5127Y7053D1*
X5091Y7101D1*
X5070Y7157D1*
X5066Y7217D1*
X5079Y7275D1*
X5109Y7327D1*
X5153Y7368D1*
X5206Y7395D1*
X5219Y7397D1*
X5180Y7453D1*
X5165Y7520D1*
Y8253D1*
X4985Y8432D1*
X5265Y9588D2*
Y8617D1*
X5447Y8437D1*
X5480Y8387D1*
X5495Y8320D1*
Y7587D1*
X5505Y7590D1*
Y9688D1*
X5456Y9627D1*
X5405Y9596D1*
X5347Y9581D1*
X5287Y9584D1*
X5264Y9592D1*
X6654Y5655D2*
X6667Y5634D1*
X6683Y5577D1*
X6685Y5550D1*
X6676Y5491D1*
X6651Y5437D1*
X6611Y5392D1*
X6560Y5361D1*
X6502Y5346D1*
X6442Y5349D1*
X6398Y5364D1*
X7176Y1311D2*
X7151Y1257D1*
X7111Y1212D1*
X7060Y1181D1*
X7002Y1166D1*
X6942Y1169D1*
X6885Y1188D1*
X6837Y1223D1*
X6801Y1271D1*
X6780Y1327D1*
X6776Y1387D1*
X6789Y1445D1*
X6819Y1497D1*
X6863Y1538D1*
X6916Y1565D1*
X6975Y1575D1*
X7034Y1567D1*
X7089Y1543D1*
X7134Y1505D1*
X7167Y1454D1*
X7183Y1397D1*
X7185Y1370D1*
X7176Y1311D1*
X10336Y7851D2*
X10311Y7797D1*
X10271Y7752D1*
X10220Y7721D1*
X10162Y7706D1*
X10102Y7709D1*
X10045Y7728D1*
X9997Y7763D1*
X9961Y7811D1*
X9940Y7867D1*
X9936Y7927D1*
X9949Y7985D1*
X9979Y8037D1*
X10023Y8078D1*
X10076Y8105D1*
X10135Y8115D1*
X10194Y8107D1*
X10249Y8083D1*
X10294Y8045D1*
X10327Y7994D1*
X10343Y7937D1*
X10345Y7910D1*
X10336Y7851D1*
X4586Y8121D2*
X4561Y8067D1*
X4521Y8022D1*
X4470Y7991D1*
X4412Y7976D1*
X4352Y7979D1*
X4295Y7998D1*
X4247Y8033D1*
X4211Y8081D1*
X4190Y8137D1*
X4186Y8197D1*
X4199Y8255D1*
X4229Y8307D1*
X4273Y8348D1*
X4326Y8375D1*
X4385Y8385D1*
X4444Y8377D1*
X4499Y8353D1*
X4544Y8315D1*
X4577Y8264D1*
X4593Y8207D1*
X4595Y8180D1*
X4586Y8121D1*
X9346Y3371D2*
X9321Y3317D1*
X9281Y3272D1*
X9230Y3241D1*
X9172Y3226D1*
X9112Y3229D1*
X9055Y3248D1*
X9007Y3283D1*
X8971Y3331D1*
X8950Y3387D1*
X8946Y3447D1*
X8959Y3505D1*
X8989Y3557D1*
X9033Y3598D1*
X9086Y3625D1*
X9145Y3635D1*
X9204Y3627D1*
X9259Y3603D1*
X9304Y3565D1*
X9337Y3514D1*
X9353Y3457D1*
X9355Y3430D1*
X9346Y3371D1*
X6056Y1551D2*
X6031Y1497D1*
X5991Y1452D1*
X5940Y1421D1*
X5882Y1406D1*
X5822Y1409D1*
X5765Y1428D1*
X5717Y1463D1*
X5681Y1511D1*
X5660Y1567D1*
X5656Y1627D1*
X5669Y1685D1*
X5699Y1737D1*
X5743Y1778D1*
X5796Y1805D1*
X5855Y1815D1*
X5914Y1807D1*
X5969Y1783D1*
X6014Y1745D1*
X6047Y1694D1*
X6063Y1637D1*
X6065Y1610D1*
X6056Y1551D1*
X8186Y7461D2*
X8161Y7407D1*
X8121Y7362D1*
X8070Y7331D1*
X8012Y7316D1*
X7952Y7319D1*
X7895Y7338D1*
X7847Y7373D1*
X7811Y7421D1*
X7790Y7477D1*
X7786Y7537D1*
X7799Y7595D1*
X7829Y7647D1*
X7873Y7688D1*
X7926Y7715D1*
X7985Y7725D1*
X8044Y7717D1*
X8099Y7693D1*
X8144Y7655D1*
X8177Y7604D1*
X8193Y7547D1*
X8195Y7520D1*
X8186Y7461D1*
X9026Y1081D2*
X9001Y1027D1*
X8961Y982D1*
X8910Y951D1*
X8852Y936D1*
X8792Y939D1*
X8735Y958D1*
X8687Y993D1*
X8651Y1041D1*
X8630Y1097D1*
X8626Y1157D1*
X8639Y1215D1*
X8669Y1267D1*
X8713Y1308D1*
X8766Y1335D1*
X8825Y1345D1*
X8884Y1337D1*
X8939Y1313D1*
X8984Y1275D1*
X9017Y1224D1*
X9033Y1167D1*
X9035Y1140D1*
X9026Y1081D1*
X12946Y7891D2*
X12921Y7837D1*
X12881Y7792D1*
X12830Y7761D1*
X12772Y7746D1*
X12712Y7749D1*
X12655Y7768D1*
X12607Y7803D1*
X12571Y7851D1*
X12550Y7907D1*
X12546Y7967D1*
X12559Y8025D1*
X12589Y8077D1*
X12633Y8118D1*
X12686Y8145D1*
X12745Y8155D1*
X12804Y8147D1*
X12859Y8123D1*
X12904Y8085D1*
X12937Y8034D1*
X12953Y7977D1*
X12955Y7950D1*
X12946Y7891D1*
X8756Y3461D2*
X8731Y3407D1*
X8691Y3362D1*
X8640Y3331D1*
X8582Y3316D1*
X8522Y3319D1*
X8465Y3338D1*
X8417Y3373D1*
X8381Y3421D1*
X8360Y3477D1*
X8356Y3537D1*
X8369Y3595D1*
X8399Y3647D1*
X8443Y3688D1*
X8496Y3715D1*
X8555Y3725D1*
X8614Y3717D1*
X8669Y3693D1*
X8714Y3655D1*
X8747Y3604D1*
X8763Y3547D1*
X8765Y3520D1*
X8756Y3461D1*
X7836Y9551D2*
X7811Y9497D1*
X7771Y9452D1*
X7720Y9421D1*
X7662Y9406D1*
X7602Y9409D1*
X7545Y9428D1*
X7497Y9463D1*
X7461Y9511D1*
X7440Y9567D1*
X7436Y9627D1*
X7449Y9685D1*
X7479Y9737D1*
X7523Y9778D1*
X7576Y9805D1*
X7635Y9815D1*
X7694Y9807D1*
X7749Y9783D1*
X7794Y9745D1*
X7827Y9694D1*
X7843Y9637D1*
X7845Y9610D1*
X7836Y9551D1*
X9246Y7481D2*
X9221Y7427D1*
X9181Y7382D1*
X9130Y7351D1*
X9072Y7336D1*
X9012Y7339D1*
X8955Y7358D1*
X8907Y7393D1*
X8871Y7441D1*
X8850Y7497D1*
X8846Y7557D1*
X8859Y7615D1*
X8889Y7667D1*
X8933Y7708D1*
X8986Y7735D1*
X9045Y7745D1*
X9104Y7737D1*
X9159Y7713D1*
X9204Y7675D1*
X9237Y7624D1*
X9253Y7567D1*
X9255Y7540D1*
X9246Y7481D1*
X8056Y8351D2*
X8031Y8297D1*
X7991Y8252D1*
X7940Y8221D1*
X7882Y8206D1*
X7822Y8209D1*
X7765Y8228D1*
X7717Y8263D1*
X7681Y8311D1*
X7660Y8367D1*
X7656Y8427D1*
X7669Y8485D1*
X7699Y8537D1*
X7743Y8578D1*
X7796Y8605D1*
X7855Y8615D1*
X7914Y8607D1*
X7969Y8583D1*
X8014Y8545D1*
X8047Y8494D1*
X8063Y8437D1*
X8065Y8410D1*
X8056Y8351D1*
X812Y10687D2*
D13*
Y10238D1*
Y10687D2*
X1262D1*
X812Y9137D2*
Y8238D1*
Y8687D2*
X1262D1*
X812Y8137D2*
Y7238D1*
Y7687D2*
X1262D1*
X812Y7137D2*
Y6238D1*
Y6687D2*
X1262D1*
X812Y6137D2*
Y5238D1*
Y5687D2*
X1262D1*
X812Y5137D2*
Y4238D1*
Y4687D2*
X1262D1*
X812Y4137D2*
Y3238D1*
Y3687D2*
X1262D1*
X812Y3137D2*
Y2238D1*
Y2687D2*
X1262D1*
X812Y2137D2*
Y1238D1*
Y1687D2*
X1262D1*
X812Y1137D2*
Y687D1*
X1262D1*
X2812Y10687D2*
Y10238D1*
X2363Y10687D2*
X3262D1*
X12800Y3015D2*
Y2185D1*
Y1015D2*
Y600D1*
X11885D2*
X12800D1*
Y9115D2*
Y8285D1*
Y10700D2*
Y10285D1*
X11885Y10700D2*
X12800D1*
X9804Y5679D2*
X10086D1*
X5219Y2924D2*
X5881D1*
X10520Y8672D2*
X10880D1*
X8563Y4828D2*
Y3812D1*
Y4320D2*
X8933D1*
X3838Y10619D2*
Y10111D1*
X3468Y10619D2*
X3838D1*
X8192D2*
X8933D1*
X8980D2*
X9350D1*
X10520Y2390D2*
X10880D1*
X11790Y7265D2*
Y6249D1*
X12983Y7059D2*
Y6318D1*
Y4913D2*
Y4172D1*
X11790Y4982D2*
Y3965D1*
D28*
X10213Y8883D3*
Y9237D3*
D29*
X812Y10687D3*
D30*
X1812D3*
X812Y9687D3*
X1812D3*
X812Y8687D3*
X1812D3*
X812Y7687D3*
X1812D3*
X812Y6687D3*
X1812D3*
X812Y5687D3*
X1812D3*
X812Y4687D3*
X1812D3*
X812Y3687D3*
X1812D3*
X812Y2687D3*
X1812D3*
X812Y1687D3*
X1812D3*
X812Y687D3*
X1812D3*
X2812Y10687D3*
Y9687D3*
Y8687D3*
Y7687D3*
Y6687D3*
Y5687D3*
Y4687D3*
Y3687D3*
Y2687D3*
Y1687D3*
Y687D3*
D33*
X11250Y4190D3*
Y3639D3*
X11230Y6920D3*
Y7471D3*
X10080Y4160D3*
Y4711D3*
D28*
X10200Y9706D3*
Y10060D3*
D37*
X4510Y2460D3*
X4156D3*
X4140Y1650D3*
X4494D3*
D32*
X8045Y2295D3*
X7375D3*
D41*
X12800Y2600D3*
Y1600D3*
Y600D3*
Y8700D3*
Y9700D3*
Y10700D3*
D43*
X10460Y6250D3*
X10657D3*
X10854D3*
D44*
X11228Y5876D3*
Y5679D3*
Y5482D3*
D43*
X10854Y5108D3*
X10657D3*
X10460D3*
D44*
X10086Y5482D3*
Y5679D3*
Y5876D3*
D45*
X10657Y5679D3*
D47*
X5550Y2550D3*
Y2924D3*
Y3298D3*
X6613D3*
Y2924D3*
Y2550D3*
D49*
X11250Y9313D3*
Y8033D3*
D50*
X10880Y8672D3*
X11620D3*
G36*
X9094Y3926D2*
X9606D1*
Y4714D1*
X9094D1*
Y3926D1*
G37*
G36*
X8307D2*
X8819D1*
Y4714D1*
X8307D1*
Y3926D1*
G37*
G36*
X7519D2*
X8031D1*
Y4714D1*
X7519D1*
Y3926D1*
G37*
G36*
X6732D2*
X7244D1*
Y4714D1*
X6732D1*
Y3926D1*
G37*
G36*
X5944D2*
X6456D1*
Y4714D1*
X5944D1*
Y3926D1*
G37*
G36*
X5157D2*
X5669D1*
Y4714D1*
X5157D1*
Y3926D1*
G37*
G36*
X4370D2*
X4881D1*
Y4714D1*
X4370D1*
Y3926D1*
G37*
G36*
X3582D2*
X4094D1*
Y4714D1*
X3582D1*
Y3926D1*
G37*
G36*
Y10226D2*
X4094D1*
Y11013D1*
X3582D1*
Y10226D1*
G37*
G36*
X4370D2*
X4881D1*
Y11013D1*
X4370D1*
Y10226D1*
G37*
G36*
X5157D2*
X5669D1*
Y11013D1*
X5157D1*
Y10226D1*
G37*
G36*
X5944D2*
X6456D1*
Y11013D1*
X5944D1*
Y10226D1*
G37*
G36*
X6732D2*
X7244D1*
Y11013D1*
X6732D1*
Y10226D1*
G37*
G36*
X7519D2*
X8031D1*
Y11013D1*
X7519D1*
Y10226D1*
G37*
G36*
X8307D2*
X8819D1*
Y11013D1*
X8307D1*
Y10226D1*
G37*
G36*
X9094D2*
X9606D1*
Y11013D1*
X9094D1*
Y10226D1*
G37*
D49*
X11250Y1750D3*
Y3030D3*
D50*
X11620Y2390D3*
X10880D3*
G36*
X11503Y7151D2*
X12077D1*
Y6363D1*
X11503D1*
Y7151D1*
G37*
G36*
X12176Y6432D2*
Y7151D1*
X12451D1*
Y6944D1*
X13416D1*
Y6432D1*
X12176D1*
G37*
G36*
X12451Y4287D2*
Y4080D1*
X12176D1*
Y4798D1*
X13416D1*
Y4287D1*
X12451D1*
G37*
G36*
X12077Y4080D2*
X11503D1*
Y4867D1*
X12077D1*
Y4080D1*
G37*
G36*
X9940Y5520D2*
X10240D1*
Y4660D1*
X9940D1*
Y5520D1*
G37*
M02*
