G04 DipTrace Beta 2.3.5.2*
%INBankWank.GTO*%
%MOIN*%
%ADD15C,0.008*%
%ADD19C,0.013*%
%ADD22C,0.004*%
%ADD23C,0.009*%
%ADD24C,0.005*%
%ADD25C,0.0325*%
%ADD26O,0.01X0.0095*%
%ADD113C,0.0031*%
%ADD114C,0.0044*%
%ADD115C,0.0066*%
%FSLAX44Y44*%
G04*
G70*
G90*
G75*
G01*
%LNTop TopSilk*%
%LPD*%
G36*
X355Y9130D2*
X1230D1*
Y240D1*
X355D1*
Y9130D1*
G37*
G36*
X350Y11135D2*
X1350D1*
Y10200D1*
X350D1*
Y11135D1*
G37*
G36*
X2390Y11130D2*
X3230D1*
Y10150D1*
X2390D1*
Y11130D1*
G37*
X1430Y8080D2*
D15*
X2185D1*
Y285D1*
X1430D1*
Y8080D1*
X1350Y11095D2*
X2310D1*
Y10240D1*
X1350D1*
Y11095D1*
X2430Y10305D2*
X3190D1*
Y9280D1*
X2430D1*
Y10305D1*
X1820Y11070D2*
D19*
Y10270D1*
X1425Y9105D2*
D22*
X3195D1*
Y8280D1*
X1425D1*
Y9105D1*
X2305Y9095D2*
Y8290D1*
X1385Y10680D2*
D19*
X2275D1*
X10075Y7645D2*
D23*
X10845D1*
X9265Y7765D2*
X9960D1*
Y7180D1*
X9265D1*
Y7765D1*
X6560Y8295D2*
X6685Y8420D1*
X7625D2*
X7740D1*
Y8300D2*
Y8420D1*
X7742Y7347D2*
Y7232D1*
X7622D2*
X7742D1*
X6560Y7235D2*
Y7360D1*
X6690Y7235D2*
X6560D1*
D25*
X7598Y3433D3*
X5130Y5895D2*
D24*
X7880D1*
X7885D2*
Y3265D1*
X7760Y3140D1*
X5135D1*
X5130D2*
Y5890D1*
X9035Y1640D2*
D23*
X9200D1*
X9025Y1650D2*
Y1810D1*
X9760Y765D2*
Y885D1*
X9025Y3430D2*
Y3590D1*
X9190Y3600D2*
X9030D1*
X10995Y1660D2*
Y1820D1*
X10985Y1650D2*
X10825D1*
X10795Y3610D2*
X10995Y3415D1*
D26*
X10610Y3893D3*
X3263Y592D2*
D114*
X3359Y793D1*
X3225D1*
X3344Y1764D2*
X3335Y1783D1*
X3306Y1793D1*
X3287D1*
X3258Y1783D1*
X3239Y1754D1*
X3230Y1707D1*
Y1659D1*
X3239Y1621D1*
X3258Y1601D1*
X3287Y1592D1*
X3297D1*
X3325Y1601D1*
X3344Y1621D1*
X3354Y1649D1*
Y1659D1*
X3344Y1688D1*
X3325Y1707D1*
X3297Y1716D1*
X3287D1*
X3258Y1707D1*
X3239Y1688D1*
X3230Y1659D1*
X3339Y2793D2*
X3244D1*
X3234Y2707D1*
X3244Y2716D1*
X3273Y2726D1*
X3301D1*
X3330Y2716D1*
X3349Y2697D1*
X3359Y2668D1*
Y2649D1*
X3349Y2621D1*
X3330Y2601D1*
X3301Y2592D1*
X3273D1*
X3244Y2601D1*
X3234Y2611D1*
X3225Y2630D1*
X3325Y3602D2*
Y3803D1*
X3230Y3669D1*
X3373D1*
X3254Y4763D2*
X3359D1*
X3302Y4686D1*
X3330D1*
X3349Y4677D1*
X3359Y4667D1*
X3369Y4638D1*
Y4619D1*
X3359Y4591D1*
X3340Y4571D1*
X3311Y4562D1*
X3282D1*
X3254Y4571D1*
X3244Y4581D1*
X3235Y4600D1*
X3244Y5750D2*
Y5759D1*
X3254Y5779D1*
X3263Y5788D1*
X3283Y5798D1*
X3321D1*
X3340Y5788D1*
X3349Y5779D1*
X3359Y5759D1*
Y5740D1*
X3349Y5721D1*
X3330Y5693D1*
X3235Y5597D1*
X3369D1*
X3255Y6754D2*
X3274Y6764D1*
X3303Y6793D1*
Y6592D1*
X3390D2*
X3524Y6793D1*
X3612Y6688D2*
X3698D1*
X3726Y6697D1*
X3736Y6707D1*
X3746Y6726D1*
Y6755D1*
X3736Y6774D1*
X3726Y6783D1*
X3698Y6793D1*
X3612D1*
Y6592D1*
X3833Y6688D2*
X3919D1*
X3948Y6697D1*
X3958Y6707D1*
X3967Y6726D1*
Y6755D1*
X3958Y6774D1*
X3948Y6783D1*
X3919Y6793D1*
X3833D1*
Y6592D1*
X4208D2*
Y6793D1*
X4131Y6592D1*
X4055Y6793D1*
Y6592D1*
X3417Y7934D2*
X3436Y7953D1*
X3446Y7982D1*
Y8020D1*
X3436Y8049D1*
X3417Y8068D1*
X3398D1*
X3379Y8058D1*
X3369Y8049D1*
X3360Y8030D1*
X3340Y7972D1*
X3331Y7953D1*
X3321Y7944D1*
X3302Y7934D1*
X3274D1*
X3254Y7953D1*
X3245Y7982D1*
Y8020D1*
X3254Y8049D1*
X3274Y8068D1*
X3446Y7847D2*
X3245D1*
Y7760D1*
X3254Y7732D1*
X3264Y7722D1*
X3283Y7713D1*
X3312D1*
X3331Y7722D1*
X3340Y7732D1*
X3350Y7760D1*
X3360Y7732D1*
X3369Y7722D1*
X3388Y7713D1*
X3407D1*
X3426Y7722D1*
X3436Y7732D1*
X3446Y7760D1*
Y7847D1*
X3350D2*
Y7760D1*
X3446Y7625D2*
X3302D1*
X3274Y7616D1*
X3254Y7596D1*
X3245Y7568D1*
Y7549D1*
X3254Y7520D1*
X3274Y7501D1*
X3302Y7491D1*
X3446D1*
X3417Y7270D2*
X3436Y7289D1*
X3446Y7318D1*
Y7356D1*
X3436Y7385D1*
X3417Y7404D1*
X3398D1*
X3379Y7394D1*
X3369Y7385D1*
X3360Y7365D1*
X3340Y7308D1*
X3331Y7289D1*
X3321Y7279D1*
X3302Y7270D1*
X3274D1*
X3254Y7289D1*
X3245Y7318D1*
Y7356D1*
X3254Y7385D1*
X3274Y7404D1*
X4037Y8794D2*
D115*
X3736D1*
X4037Y8894D2*
Y8693D1*
Y8562D2*
X3736Y8361D1*
X4037D2*
X3736Y8562D1*
X3433Y8849D2*
Y8720D1*
X3448Y8677D1*
X3462Y8663D1*
X3491Y8648D1*
X3520D1*
X3548Y8663D1*
X3563Y8677D1*
X3577Y8720D1*
Y8849D1*
X3276D1*
X3433Y8749D2*
X3276Y8648D1*
X3577Y8517D2*
X3276Y8316D1*
X3577D2*
X3276Y8517D1*
X3995Y10198D2*
D114*
Y10112D1*
X4005Y10083D1*
X4014Y10074D1*
X4033Y10064D1*
X4052D1*
X4071Y10074D1*
X4081Y10083D1*
X4091Y10112D1*
Y10198D1*
X3890D1*
X3995Y10131D2*
X3890Y10064D1*
X4062Y9843D2*
X4081Y9862D1*
X4091Y9890D1*
Y9929D1*
X4081Y9957D1*
X4062Y9977D1*
X4043D1*
X4024Y9967D1*
X4014Y9957D1*
X4005Y9938D1*
X3985Y9881D1*
X3976Y9862D1*
X3966Y9852D1*
X3947Y9843D1*
X3919D1*
X3899Y9862D1*
X3890Y9890D1*
Y9929D1*
X3899Y9957D1*
X3919Y9977D1*
X4062Y9621D2*
X4081Y9640D1*
X4091Y9669D1*
Y9707D1*
X4081Y9736D1*
X4062Y9755D1*
X4043D1*
X4024Y9745D1*
X4014Y9736D1*
X4005Y9717D1*
X3985Y9659D1*
X3976Y9640D1*
X3966Y9631D1*
X3947Y9621D1*
X3919D1*
X3899Y9640D1*
X3890Y9669D1*
Y9707D1*
X3899Y9736D1*
X3919Y9755D1*
X4091Y9534D2*
X3890D1*
X3761Y10198D2*
X3560D1*
Y10112D1*
X3569Y10083D1*
X3579Y10074D1*
X3598Y10064D1*
X3627D1*
X3646Y10074D1*
X3655Y10083D1*
X3665Y10112D1*
X3675Y10083D1*
X3684Y10074D1*
X3703Y10064D1*
X3722D1*
X3741Y10074D1*
X3751Y10083D1*
X3761Y10112D1*
Y10198D1*
X3665D2*
Y10112D1*
X3761Y9977D2*
Y9843D1*
X3560Y9977D1*
Y9843D1*
X3746Y9669D2*
X3574D1*
X3660Y9755D2*
Y9583D1*
X3466Y10198D2*
X3265D1*
Y10112D1*
X3274Y10083D1*
X3284Y10074D1*
X3303Y10064D1*
X3332D1*
X3351Y10074D1*
X3360Y10083D1*
X3370Y10112D1*
X3380Y10083D1*
X3389Y10074D1*
X3408Y10064D1*
X3427D1*
X3446Y10074D1*
X3456Y10083D1*
X3466Y10112D1*
Y10198D1*
X3370D2*
Y10112D1*
X3466Y9977D2*
Y9843D1*
X3265Y9977D1*
Y9843D1*
X3365Y9755D2*
Y9645D1*
X10103Y7559D2*
D113*
Y7358D1*
X10170D1*
X10199Y7368D1*
X10218Y7387D1*
X10228Y7406D1*
X10237Y7435D1*
Y7483D1*
X10228Y7512D1*
X10218Y7531D1*
X10199Y7550D1*
X10170Y7559D1*
X10103D1*
X10299Y7454D2*
X10385D1*
X10414Y7464D1*
X10423Y7473D1*
X10433Y7492D1*
Y7521D1*
X10423Y7540D1*
X10414Y7550D1*
X10385Y7559D1*
X10299D1*
Y7358D1*
X10495Y7454D2*
X10581D1*
X10609Y7464D1*
X10619Y7473D1*
X10629Y7492D1*
Y7521D1*
X10619Y7540D1*
X10609Y7550D1*
X10581Y7559D1*
X10495D1*
Y7358D1*
X10843D2*
Y7559D1*
X10767Y7358D1*
X10690Y7559D1*
Y7358D1*
M02*
