G04 DipTrace Beta 2.3.5.2*
%INBankWank.GBS*%
%MOIN*%
%ADD27R,0.05X0.025*%
%ADD28R,0.0669X0.0669*%
%ADD32R,0.0433X0.0394*%
%ADD33R,0.0315X0.0197*%
%ADD37R,0.025X0.05*%
%ADD41R,0.16X0.06*%
%ADD78R,0.053X0.028*%
%ADD80R,0.075X0.045*%
%ADD82R,0.0473X0.0276*%
%ADD84O,0.0375X0.0158*%
%ADD86O,0.0158X0.0375*%
%ADD108C,0.0709*%
%ADD110R,0.0709X0.0709*%
%FSLAX44Y44*%
G04*
G70*
G90*
G75*
G01*
%LNBotMask*%
%LPD*%
D27*
X10213Y8883D3*
Y9237D3*
D110*
X812Y10687D3*
D108*
X1812D3*
X812Y9687D3*
X1812D3*
X812Y8687D3*
X1812D3*
X812Y7687D3*
X1812D3*
X812Y6687D3*
X1812D3*
X812Y5687D3*
X1812D3*
X812Y4687D3*
X1812D3*
X812Y3687D3*
X1812D3*
X812Y2687D3*
X1812D3*
X812Y1687D3*
X1812D3*
X812Y687D3*
X1812D3*
X2812Y10687D3*
Y9687D3*
Y8687D3*
Y7687D3*
Y6687D3*
Y5687D3*
Y4687D3*
Y3687D3*
Y2687D3*
Y1687D3*
Y687D3*
D33*
X11250Y4190D3*
Y3639D3*
X11230Y6920D3*
Y7471D3*
X10080Y4160D3*
Y4711D3*
D27*
X10200Y9706D3*
Y10060D3*
D37*
X4510Y2460D3*
X4156D3*
X4140Y1650D3*
X4494D3*
D32*
X8045Y2295D3*
X7375D3*
D41*
X12800Y2600D3*
Y1600D3*
Y600D3*
Y8700D3*
Y9700D3*
Y10700D3*
D86*
X10460Y6250D3*
X10657D3*
X10854D3*
D84*
X11228Y5876D3*
Y5679D3*
Y5482D3*
D86*
X10854Y5108D3*
X10657D3*
X10460D3*
D84*
X10086Y5482D3*
Y5679D3*
Y5876D3*
D28*
X10657Y5679D3*
D82*
X5550Y2550D3*
Y2924D3*
Y3298D3*
X6613D3*
Y2924D3*
Y2550D3*
D80*
X11250Y9313D3*
Y8033D3*
D78*
X10880Y8672D3*
X11620D3*
G36*
X9094Y3926D2*
X9606D1*
Y4714D1*
X9094D1*
Y3926D1*
G37*
G36*
X8307D2*
X8819D1*
Y4714D1*
X8307D1*
Y3926D1*
G37*
G36*
X7519D2*
X8031D1*
Y4714D1*
X7519D1*
Y3926D1*
G37*
G36*
X6732D2*
X7244D1*
Y4714D1*
X6732D1*
Y3926D1*
G37*
G36*
X5944D2*
X6456D1*
Y4714D1*
X5944D1*
Y3926D1*
G37*
G36*
X5157D2*
X5669D1*
Y4714D1*
X5157D1*
Y3926D1*
G37*
G36*
X4370D2*
X4881D1*
Y4714D1*
X4370D1*
Y3926D1*
G37*
G36*
X3582D2*
X4094D1*
Y4714D1*
X3582D1*
Y3926D1*
G37*
G36*
Y10226D2*
X4094D1*
Y11013D1*
X3582D1*
Y10226D1*
G37*
G36*
X4370D2*
X4881D1*
Y11013D1*
X4370D1*
Y10226D1*
G37*
G36*
X5157D2*
X5669D1*
Y11013D1*
X5157D1*
Y10226D1*
G37*
G36*
X5944D2*
X6456D1*
Y11013D1*
X5944D1*
Y10226D1*
G37*
G36*
X6732D2*
X7244D1*
Y11013D1*
X6732D1*
Y10226D1*
G37*
G36*
X7519D2*
X8031D1*
Y11013D1*
X7519D1*
Y10226D1*
G37*
G36*
X8307D2*
X8819D1*
Y11013D1*
X8307D1*
Y10226D1*
G37*
G36*
X9094D2*
X9606D1*
Y11013D1*
X9094D1*
Y10226D1*
G37*
D80*
X11250Y1750D3*
Y3030D3*
D78*
X11620Y2390D3*
X10880D3*
G36*
X11483Y7171D2*
X12097D1*
Y6343D1*
X11483D1*
Y7171D1*
G37*
G36*
X12156Y6412D2*
Y7171D1*
X12471D1*
Y6964D1*
X13436D1*
Y6412D1*
X12156D1*
G37*
G36*
X12471Y4267D2*
Y4060D1*
X12156D1*
Y4818D1*
X13436D1*
Y4267D1*
X12471D1*
G37*
G36*
X12097Y4060D2*
X11483D1*
Y4887D1*
X12097D1*
Y4060D1*
G37*
M02*
